<svg width="216" height="180" viewBox="0 0 216 180" fill="none" xmlns="http://www.w3.org/2000/svg">
<path d="M204.888 84.6888C216.795 103.071 220.047 129.092 209.678 147.665C199.306 166.096 175.382 177.006 153.585 179.448C131.858 181.817 112.33 175.786 89.5579 175.918C66.7889 176.19 40.7786 182.766 23.3819 174.208C6.05427 165.577 -2.87009 141.887 1.58833 121.691C6.04675 101.494 23.819 84.863 32.0912 61.5318C40.4358 38.2697 54.5483 12.2795 66.4999 3.50011C78.4481 -5.42069 107.055 8.36237 126 19.5001C145.014 30.5654 147.338 35.6553 164 46C180.731 56.2722 193.053 66.3752 204.888 84.6888Z" fill="#52FB8E" fill-opacity="0.3"/>
<path d="M160.195 102.714C168.577 114.443 172.258 130.145 167.251 140.511C162.232 150.793 148.562 155.7 135.611 155.709C122.697 155.679 110.549 150.796 96.8575 149.364C83.1775 148.018 67.9653 150.208 56.9321 143.961C45.9356 137.676 38.9966 122.986 40.3404 111.262C41.6841 99.5378 51.2739 90.8178 54.7043 77.4807C58.1829 64.1896 74.3917 45.9329 81.0001 41.5C87.597 36.9827 98.3645 47.116 110.5 55C122.672 62.8455 128.79 74.2392 139.5 81.5C150.246 88.7222 151.862 91.0306 160.195 102.714Z" fill="#00F863" fill-opacity="0.3"/>
</svg>
