<svg width="213" height="174" viewBox="0 0 213 174" fill="none" xmlns="http://www.w3.org/2000/svg">
<path d="M8.45774 62.8278C13.8766 39.1079 16.9399 17.4906 29.8641 7.92375C42.7883 -1.64311 65.6593 0.789225 84.2291 2.06017C102.85 3.41701 117.084 3.66366 135.791 4.9693C154.497 6.27494 177.506 8.74198 193.11 21.4434C208.628 34.1961 216.829 57.1319 210.14 75.2059C203.485 93.1427 182.114 106.115 166.454 124.764C150.88 143.361 141.155 167.669 125.877 172.701C110.633 177.597 89.8888 163.303 65.9559 154.402C41.9718 145.415 14.6623 141.787 4.96338 127.079C-4.73556 112.37 3.03888 86.5478 8.45774 62.8278Z" fill="#04A946" fill-opacity="0.15"/>
<path d="M35.9682 70.4565C40.6412 54.1577 43.5578 39.3666 53.1282 32.4331C62.6987 25.4997 78.9863 26.3862 92.2342 26.6277C105.516 26.9259 115.695 26.6167 129.04 26.8771C142.385 27.1376 158.769 28.0432 169.512 36.1508C180.191 44.2962 185.292 59.6059 179.899 72.111C174.536 84.5217 158.806 94.0522 146.973 107.248C135.203 120.406 127.429 137.249 116.325 141.18C105.252 145.017 90.8834 136 74.0525 130.753C57.1879 125.45 37.7638 123.9 31.3149 114.231C24.866 104.562 31.2953 86.7553 35.9682 70.4565Z" fill="#00BD34" fill-opacity="0.15"/>
</svg>
