<svg width="960" height="40" viewBox="0 0 960 40" fill="none" xmlns="http://www.w3.org/2000/svg">
<path d="M0 40L9.3 39.8222C18.7 39.7333 37.3 39.3778 56.2 37.7778C75 36.1778 94 33.1556 112.8 33.1556C131.7 33.1556 150.3 36.1778 169.2 36C188 35.8222 207 32.6222 225.8 30.4C244.7 28.1778 263.3 26.9333 282.2 27.8222C301 28.7111 320 31.7333 338.8 34.4C357.7 37.0667 376.3 39.3778 395.2 38.2222C414 37.0667 433 32.2667 451.8 30.2222C470.7 28.1778 489.3 28.7111 508.2 30.0444C527 31.3778 546 33.5111 564.8 33.0667C583.7 32.6222 602.3 29.6 621.2 30.4889C640 31.3778 659 36.1778 677.8 37.7778C696.7 39.3778 715.3 37.9556 734.2 35.5556C753 33.1556 772 29.9556 790.8 29.0667C809.7 28.1778 828.3 29.6 847.2 30.9333C866 32.2667 885 33.5111 903.8 33.6C922.7 33.7778 941.3 32.8889 950.7 32.4444L960 32V0H950.7C941.3 0 922.7 0 903.8 0C885 0 866 0 847.2 0C828.3 0 809.7 0 790.8 0C772 0 753 0 734.2 0C715.3 0 696.7 0 677.8 0C659 0 640 0 621.2 0C602.3 0 583.7 0 564.8 0C546 0 527 0 508.2 0C489.3 0 470.7 0 451.8 0C433 0 414 0 395.2 0C376.3 0 357.7 0 338.8 0C320 0 301 0 282.2 0C263.3 0 244.7 0 225.8 0C207 0 188 0 169.2 0C150.3 0 131.7 0 112.8 0C94 0 75 0 56.2 0C37.3 0 18.7 0 9.3 0H0V40Z" fill="#04A946" fill-opacity="0.5"/>
<path d="M0 22.1596L9.3 21.7164C18.7 21.2732 37.3 20.3868 56.2 20.1209C75 19.7664 94 20.1209 112.8 21.2732C131.7 22.4255 150.3 24.5528 169.2 23.9324C188 23.3119 207 20.1209 225.8 20.5641C244.7 21.0073 263.3 25.0847 282.2 24.996C301 24.8187 320 20.3868 338.8 19.5004C357.7 18.6141 376.3 21.2732 395.2 22.3369C414 23.3119 433 22.7801 451.8 23.2233C470.7 23.6664 489.3 25.0847 508.2 24.996C527 24.8187 546 23.046 564.8 21.2732C583.7 19.5004 602.3 17.7277 621.2 16.8413C640 15.9549 659 15.9549 677.8 16.5754C696.7 17.1072 715.3 18.3481 734.2 19.5004C753 20.6527 772 21.8937 790.8 22.1596C809.7 22.4255 828.3 21.8937 847.2 21.4505C866 21.0073 885 20.6527 903.8 20.83C922.7 21.0073 941.3 21.5391 950.7 21.8937L960 22.1596V0H950.7C941.3 0 922.7 0 903.8 0C885 0 866 0 847.2 0C828.3 0 809.7 0 790.8 0C772 0 753 0 734.2 0C715.3 0 696.7 0 677.8 0C659 0 640 0 621.2 0C602.3 0 583.7 0 564.8 0C546 0 527 0 508.2 0C489.3 0 470.7 0 451.8 0C433 0 414 0 395.2 0C376.3 0 357.7 0 338.8 0C320 0 301 0 282.2 0C263.3 0 244.7 0 225.8 0C207 0 188 0 169.2 0C150.3 0 131.7 0 112.8 0C94 0 75 0 56.2 0C37.3 0 18.7 0 9.3 0H0V22.1596Z" fill="#00BD34" fill-opacity="0.25"/>
<path d="M0 7.83535L9.3 7.40005C18.7 6.96476 37.3 6.09416 56.2 7.57417C75 8.96712 94 12.7977 112.8 14.1907C131.7 15.6707 150.3 14.8001 169.2 14.1036C188 13.3201 207 12.7977 225.8 13.0589C244.7 13.3201 263.3 14.5389 282.2 13.7554C301 13.0589 320 10.4471 338.8 10.0118C357.7 9.57654 376.3 11.3177 395.2 12.1883C414 13.0589 433 13.0589 451.8 11.5789C470.7 10.186 489.3 7.22593 508.2 7.40005C527 7.57417 546 10.7083 564.8 11.1436C583.7 11.5789 602.3 9.31536 621.2 7.66123C640 6.09416 659 5.22357 677.8 5.22357C696.7 5.22357 715.3 6.09416 734.2 6.79064C753 7.57417 772 8.09653 790.8 8.44477C809.7 8.70594 828.3 8.70594 847.2 9.31536C866 9.83772 885 11.0565 903.8 11.4918C922.7 11.9271 941.3 11.5789 950.7 11.4918L960 11.3177V0H950.7C941.3 0 922.7 0 903.8 0C885 0 866 0 847.2 0C828.3 0 809.7 0 790.8 0C772 0 753 0 734.2 0C715.3 0 696.7 0 677.8 0C659 0 640 0 621.2 0C602.3 0 583.7 0 564.8 0C546 0 527 0 508.2 0C489.3 0 470.7 0 451.8 0C433 0 414 0 395.2 0C376.3 0 357.7 0 338.8 0C320 0 301 0 282.2 0C263.3 0 244.7 0 225.8 0C207 0 188 0 169.2 0C150.3 0 131.7 0 112.8 0C94 0 75 0 56.2 0C37.3 0 18.7 0 9.3 0H0V7.83535Z" fill="#1AD005" fill-opacity="0.4"/>
</svg>
