<svg width="960" height="106" viewBox="0 0 960 106" fill="none" xmlns="http://www.w3.org/2000/svg">
<path d="M0 97.8462L11.5 94.0022C23 90.0418 46 82.3539 68.8 84.2176C91.7 86.1978 114.3 97.8462 137.2 97.8462C160 97.8462 183 86.1978 205.8 83.0528C228.7 80.0242 251.3 85.3824 274.2 89.9253C297 94.3516 320 97.8462 342.8 94.9341C365.7 92.022 388.3 82.7033 411.2 79.4418C434 76.0637 457 78.8593 480 79.2088C503 79.5582 526 77.6945 548.8 77.1121C571.7 76.5297 594.3 77.2286 617.2 79.2088C640 81.189 663 84.2176 685.8 87.9451C708.7 91.6725 731.3 95.8659 754.2 95.5165C777 95.167 800 90.0418 822.8 85.2659C845.7 80.3736 868.3 75.7143 891.2 79.2088C914 82.7033 937 94.3517 948.5 100.176L960 106V0H948.5C937 0 914 0 891.2 0C868.3 0 845.7 0 822.8 0C800 0 777 0 754.2 0C731.3 0 708.7 0 685.8 0C663 0 640 0 617.2 0C594.3 0 571.7 0 548.8 0C526 0 503 0 480 0C457 0 434 0 411.2 0C388.3 0 365.7 0 342.8 0C320 0 297 0 274.2 0C251.3 0 228.7 0 205.8 0C183 0 160 0 137.2 0C114.3 0 91.7 0 68.8 0C46 0 23 0 11.5 0H0V97.8462Z" fill="#04A946" fill-opacity="0.5"/>
<path d="M0 62.7171L11.5 61.5557C23 60.3943 46 58.0714 68.8 55.5163C91.7 53.0773 114.3 50.2899 137.2 49.7091C160 49.1284 183 50.7544 205.8 51.1029C228.7 51.4513 251.3 50.7544 274.2 49.1284C297 47.6186 320 45.2957 342.8 49.7091C365.7 54.2387 388.3 65.3884 411.2 69.3373C434 73.17 457 69.6857 480 65.853C503 61.9041 526 57.723 548.8 54.3549C571.7 51.1029 594.3 48.78 617.2 52.032C640 55.4001 663 64.227 685.8 64.227C708.7 64.227 731.3 55.4001 754.2 54.3549C777 53.4257 800 60.3943 822.8 59.8136C845.7 59.2329 868.3 51.1029 891.2 49.9414C914 48.78 937 54.5871 948.5 57.4907L960 60.3943V0H948.5C937 0 914 0 891.2 0C868.3 0 845.7 0 822.8 0C800 0 777 0 754.2 0C731.3 0 708.7 0 685.8 0C663 0 640 0 617.2 0C594.3 0 571.7 0 548.8 0C526 0 503 0 480 0C457 0 434 0 411.2 0C388.3 0 365.7 0 342.8 0C320 0 297 0 274.2 0C251.3 0 228.7 0 205.8 0C183 0 160 0 137.2 0C114.3 0 91.7 0 68.8 0C46 0 23 0 11.5 0H0V62.7171Z" fill="#00BD34" fill-opacity="0.25"/>
<path d="M0 41.125L11.5 41.9475C23 42.6525 46 44.2975 68.8 40.89C91.7 37.6 114.3 29.375 137.2 25.2625C160 21.15 183 21.15 205.8 20.21C228.7 19.1525 251.3 17.2725 274.2 16.8025C297 16.45 320 17.625 342.8 20.5625C365.7 23.5 388.3 28.2 411.2 30.55C434 32.9 457 32.9 480 29.7275C503 26.6725 526 20.3275 548.8 22.6775C571.7 25.0275 594.3 36.0725 617.2 36.19C640 36.425 663 25.85 685.8 24.3225C708.7 22.6775 731.3 30.1975 754.2 31.96C777 33.7225 800 29.7275 822.8 30.1975C845.7 30.55 868.3 35.25 891.2 38.775C914 42.3 937 44.65 948.5 45.825L960 47V0H948.5C937 0 914 0 891.2 0C868.3 0 845.7 0 822.8 0C800 0 777 0 754.2 0C731.3 0 708.7 0 685.8 0C663 0 640 0 617.2 0C594.3 0 571.7 0 548.8 0C526 0 503 0 480 0C457 0 434 0 411.2 0C388.3 0 365.7 0 342.8 0C320 0 297 0 274.2 0C251.3 0 228.7 0 205.8 0C183 0 160 0 137.2 0C114.3 0 91.7 0 68.8 0C46 0 23 0 11.5 0H0V41.125Z" fill="#1AD005" fill-opacity="0.4"/>
</svg>
