<svg width="206" height="192" viewBox="0 0 206 192" fill="none" xmlns="http://www.w3.org/2000/svg">
<path d="M150.611 44.0797C167.511 61.0797 185.011 72.6797 195.211 89.9797C205.311 107.28 208.211 130.28 201.011 149.28C193.811 168.28 176.711 183.28 158.311 188.58C139.911 193.78 120.311 189.38 102.111 187.48C83.911 185.58 67.011 186.28 47.711 181.28C28.311 176.38 6.51099 165.68 1.31099 149.68C-3.88901 133.68 7.51099 112.18 15.711 90.5797C23.811 68.8797 28.811 47.0797 42.411 28.9797C56.011 10.8797 78.411 -3.32034 97.811 0.679664C117.211 4.67966 133.611 27.0797 150.611 44.0797Z" fill="#52FB8E" fill-opacity="0.3"/>
<path d="M135.122 60.8884C146.581 72.4153 158.447 80.2807 165.364 92.011C172.212 103.741 174.178 119.337 169.296 132.22C164.414 145.103 152.82 155.273 140.343 158.867C127.867 162.393 114.577 159.41 102.237 158.121C89.8961 156.833 78.437 157.308 65.3506 153.917C52.1964 150.595 37.4148 143.34 33.8889 132.491C30.363 121.642 38.0929 107.064 43.6529 92.4179C49.1451 77.7041 52.5354 62.9225 61.7569 50.6498C70.9785 38.377 86.1669 28.7486 99.3211 31.4608C112.475 34.1731 123.595 49.3615 135.122 60.8884Z" fill="#00F863" fill-opacity="0.3"/>
</svg>
