<svg width="213" height="173" viewBox="0 0 213 173" fill="none" xmlns="http://www.w3.org/2000/svg">
<path d="M8.1077 62.0096C13.5266 38.2896 16.5899 16.6724 29.5141 7.10551C42.4383 -2.46135 65.3093 -0.0290127 83.879 1.24193C102.5 2.59878 116.734 2.84542 135.441 4.15106C154.147 5.4567 177.155 7.92374 192.76 20.6252C208.278 33.3778 216.479 56.3137 209.79 74.3876C203.135 92.3245 181.764 105.297 166.104 123.946C150.53 142.543 140.804 166.851 125.527 171.883C110.283 176.779 89.5387 162.485 65.6058 153.584C41.6217 144.597 14.3123 140.969 4.61335 126.26C-5.0856 111.552 2.68884 85.7295 8.1077 62.0096Z" fill="#52FB8E" fill-opacity="0.3"/>
<path d="M35.6182 69.6383C40.2911 53.3395 43.2077 38.5483 52.7782 31.6149C62.3487 24.6814 78.6362 25.568 91.8842 25.8095C105.166 26.1076 115.345 25.7984 128.69 26.0589C142.035 26.3194 158.419 27.2249 169.162 35.3326C179.841 43.4779 184.942 58.7877 179.549 71.2927C174.186 83.7034 158.455 93.234 146.623 106.43C134.853 119.588 127.079 136.431 115.975 140.362C104.902 144.199 90.5334 135.181 73.7025 129.935C56.8379 124.632 37.4138 123.082 30.9649 113.413C24.516 103.744 30.9453 85.9371 35.6182 69.6383Z" fill="#00F863" fill-opacity="0.3"/>
</svg>
