<svg width="450" height="325" viewBox="0 0 450 325" fill="none" xmlns="http://www.w3.org/2000/svg">
<path d="M226.043 13.5288C225.723 13.4188 223.793 22.4188 223.583 24.1288C223.373 25.8388 223.903 29.3788 223.903 29.3788L221.543 33.1288L223.153 35.3788C223.153 35.3788 222.833 46.1988 225.513 49.8388C228.193 53.4788 231.513 51.6588 231.513 51.6588L234.943 50.3688L239.123 58.6188C239.123 58.6188 244.583 61.3988 250.153 59.3688C255.723 57.3388 255.403 51.9788 255.403 51.9788L251.763 37.6288C251.763 37.6288 254.873 31.3088 251.013 22.9588C247.153 14.6088 240.413 9.2488 237.943 9.2488C235.463 9.2388 226.043 13.5288 226.043 13.5288Z" fill="white"/>
<path d="M359.123 301.059C359.123 301.059 361.763 312.239 368.473 316.299C375.183 320.359 380.463 320.159 380.263 318.329C380.063 316.499 374.773 307.559 374.573 304.309C374.373 301.059 377.013 301.259 374.373 301.059C371.723 300.859 359.123 301.059 359.123 301.059Z" fill="#04A946"/>
<path d="M410.533 301.059C410.533 301.059 413.173 312.239 419.883 316.299C426.593 320.359 431.873 320.159 431.673 318.329C431.473 316.499 426.183 307.559 425.983 304.309C425.783 301.059 428.423 301.259 425.783 301.059C423.133 300.859 410.533 301.059 410.533 301.059Z" fill="#04A946"/>
<path d="M381.883 301.059C381.883 301.059 383.913 314.069 390.623 319.319C397.333 324.569 405.253 325.619 407.893 324.359C410.533 323.099 406.263 317.649 404.843 314.499C403.423 311.349 402.813 301.279 402.813 301.279L381.883 301.059Z" fill="#04A946"/>
<path d="M417.973 286.959C369.273 282.429 318.173 281.629 234.503 278.279C187.173 276.379 56.7427 266.639 38.9527 264.309C17.2927 261.469 1.5827 258.649 0.0727045 263.549C-1.4373 268.459 20.8327 274.879 42.7327 279.409C64.6327 283.939 198.643 303.569 256.773 305.079C314.903 306.589 439.863 303.189 448.163 299.419C456.473 295.639 426.103 287.709 417.973 286.959Z" fill="black"/>
<path d="M215.933 195.559C215.933 195.559 209.193 197.559 208.833 199.019C208.473 200.479 209.383 205.209 210.473 213.499C211.563 221.789 210.563 233.079 210.933 239.179C211.293 245.279 213.123 258.489 214.573 263.309C216.033 268.139 215.843 276.609 214.393 277.699C212.933 278.789 209.383 277.789 204.373 277.429C199.363 277.069 193.993 277.889 188.343 278.519C182.693 279.159 173.953 280.519 170.953 279.609C167.953 278.699 168.493 276.789 168.493 276.149C168.493 275.509 179.423 273.419 183.703 272.049C187.983 270.679 196.373 265.799 196.953 263.939C197.533 262.079 196.383 256.779 193.513 245.029C190.643 233.279 184.913 217.949 182.913 207.209C180.903 196.469 182.553 189.419 184.633 184.429C188.153 175.969 202.543 165.229 202.543 165.229C202.543 165.229 214.833 162.689 220.003 175.609C225.173 188.529 215.933 195.559 215.933 195.559Z" fill="white" stroke="#031F43" stroke-width="2" stroke-miterlimit="10" stroke-linecap="round" stroke-linejoin="round"/>
<path d="M301.123 197.909C301.123 197.909 301.673 216.899 302.423 219.089C303.183 221.269 306.623 225.639 310.483 232.359C314.343 239.079 313.003 247.819 313.003 253.279C313.003 258.739 314.183 263.949 315.023 266.299C315.863 268.649 324.343 276.459 327.453 279.319C330.563 282.179 334.093 286.799 331.313 288.309C328.533 289.819 322.833 290.309 317.893 288.089C312.953 285.869 304.553 279.939 302.583 276.359C300.603 272.779 299.863 268.829 298.383 264.999C296.903 261.169 292.213 251.539 290.603 247.709C288.993 243.879 288.133 238.699 287.643 236.099C287.153 233.499 281.843 226.839 279.743 221.649C277.643 216.459 274.553 204.859 274.553 204.859C274.553 204.859 275.243 194.719 285.273 192.529C295.313 190.339 301.123 197.909 301.123 197.909Z" fill="white" stroke="#031F43" stroke-width="2" stroke-miterlimit="10" stroke-linecap="round" stroke-linejoin="round"/>
<path d="M246.463 31.6887C245.453 31.8887 244.543 31.0787 244.593 30.0487C244.733 27.2787 244.673 22.8187 243.183 20.0987C240.883 15.9087 238.653 13.6387 234.033 14.3787C229.413 15.1187 226.633 17.1487 222.753 14.9287C218.873 12.7087 217.763 10.6787 217.763 10.6787C217.763 10.6787 221.273 10.8587 225.343 6.60873C229.413 2.35873 232.743 -2.08127 238.843 1.05873C244.943 4.19873 241.803 6.04873 247.163 7.15873C252.523 8.26873 256.413 5.67873 261.403 9.74873C266.393 13.8187 262.513 28.4287 260.113 33.7987C259.213 35.8087 258.073 37.4287 257.003 38.6687C255.303 40.6387 252.433 41.1087 250.143 39.8887L249.103 39.3287C249.103 39.3287 251.843 35.1087 249.813 32.7087C248.823 31.5687 247.533 31.4787 246.463 31.6887Z" fill="#031F43"/>
<path d="M229.283 24.8487C229.283 24.8487 233.523 22.8888 238.613 25.5788" stroke="#031F43" stroke-width="2" stroke-miterlimit="10" stroke-linecap="round" stroke-linejoin="round"/>
<path d="M225.053 41.3188C225.053 41.3188 226.353 41.5088 227.893 40.9488C229.443 40.3888 230.433 39.7788 230.433 39.7788C230.433 39.7788 230.553 43.4888 228.643 44.1688C226.713 44.8388 225.053 41.3188 225.053 41.3188Z" stroke="#031F43" stroke-width="2" stroke-miterlimit="10" stroke-linecap="round" stroke-linejoin="round"/>
<path d="M223.813 23.9387C223.813 23.9387 226.903 25.5487 226.103 27.5287C225.303 29.5087 221.773 32.5387 221.713 33.2187C221.653 33.8987 225.853 36.9287 225.853 36.9287" stroke="#031F43" stroke-width="2" stroke-miterlimit="10" stroke-linecap="round" stroke-linejoin="round"/>
<path d="M229.933 27.3987C229.933 27.3987 232.023 25.6587 235.683 28.0887" stroke="#031F43" stroke-width="2" stroke-miterlimit="10" stroke-linecap="round" stroke-linejoin="round"/>
<path d="M230.613 27.2788C230.613 27.2788 230.803 28.9488 232.593 29.0688C234.383 29.1888 233.833 27.2788 233.833 27.2788" stroke="#031F43" stroke-width="2" stroke-miterlimit="10" stroke-linecap="round" stroke-linejoin="round"/>
<path d="M225.843 28.0486C225.843 28.0486 224.863 27.3386 223.933 27.3986" stroke="#031F43" stroke-width="2" stroke-miterlimit="10" stroke-linecap="round" stroke-linejoin="round"/>
<path d="M225.353 16.0188C225.353 16.0188 223.563 23.1888 223.433 25.2288C223.303 27.2688 224.233 30.1088 224.233 30.1088" stroke="#031F43" stroke-width="2" stroke-miterlimit="10" stroke-linecap="round" stroke-linejoin="round"/>
<path d="M222.883 34.7587C222.883 34.7587 223.003 43.9687 224.803 48.4887C226.593 52.9987 229.873 52.5087 232.163 51.5187C234.453 50.5287 242.923 44.2187 244.593 42.3087C246.263 40.3887 246.143 39.9587 246.143 39.9587C246.143 39.9587 248.493 40.8887 249.973 39.0287C251.453 37.1687 251.953 32.1687 251.953 32.1687" stroke="#031F43" stroke-width="2" stroke-miterlimit="10" stroke-linecap="round" stroke-linejoin="round"/>
<path d="M251.273 38.5288L254.933 51.4188" stroke="#031F43" stroke-width="2" stroke-miterlimit="10" stroke-linecap="round" stroke-linejoin="round"/>
<path d="M234.743 50.0786C234.743 50.0786 238.413 56.6286 238.543 58.1386" stroke="#031F43" stroke-width="2" stroke-miterlimit="10" stroke-linecap="round" stroke-linejoin="round"/>
<path d="M258.373 49.5388C258.373 49.5388 253.403 56.9188 246.453 58.1988C239.503 59.4788 234.313 57.1388 234.313 57.1388C234.313 57.1388 224.523 58.1888 215.683 63.6188C206.843 69.0488 194.283 78.3488 189.323 80.5188C184.363 82.6888 176.293 85.9488 176.293 85.9488C176.293 85.9488 176.913 89.9788 180.173 94.0088C183.433 98.0388 187.923 102.999 187.923 102.999C187.923 102.999 209.633 91.2088 214.903 93.2288C220.173 95.2488 222.963 94.6288 228.553 111.369C234.143 128.109 234.913 139.909 233.673 142.229C232.433 144.559 228.523 151.119 224.683 153.399C219.633 156.389 211.183 159.809 208.393 161.359C205.603 162.909 201.113 165.189 201.113 165.189C201.113 165.189 210.763 167.009 214.503 172.129C218.623 177.759 219.103 182.249 218.323 186.899C217.543 191.549 216.613 196.199 216.613 196.199C216.613 196.199 225.143 195.729 236.313 191.239C247.483 186.739 258.023 183.179 258.023 183.179C258.023 183.179 265.933 188.609 267.793 192.639C269.653 196.669 274.933 207.709 274.933 207.709C274.933 207.709 281.163 198.749 288.293 197.969C295.423 197.189 301.143 197.909 301.143 197.909C301.143 197.909 301.923 185.189 298.813 174.179C295.713 163.169 294.933 152.469 293.383 147.509C291.833 142.549 288.423 129.679 288.113 120.989C287.803 112.309 289.513 90.8988 289.513 90.8988L303.313 107.029C303.313 107.029 309.823 104.389 313.553 102.689C317.273 100.979 318.673 96.1788 318.673 96.1788C318.673 96.1788 292.463 58.8088 284.243 55.3888C276.023 51.9688 261.603 54.4588 261.603 54.4588L258.373 49.5388Z" fill="#04A946" stroke="#031F43" stroke-width="2" stroke-miterlimit="10" stroke-linecap="round" stroke-linejoin="round"/>
<path d="M184.713 99.5587C184.713 99.5587 174.883 104.549 165.943 107.529C157.003 110.509 139.573 112.369 135.333 113.409C131.083 114.449 119.023 118.919 116.193 122.269C113.363 125.619 108.073 127.779 103.903 129.789C99.7328 131.799 99.2128 131.879 98.3128 130.979C97.4228 130.089 98.0928 127.929 100.173 125.689C102.263 123.459 104.493 121.219 104.493 121.219C104.493 121.219 94.0628 117.349 89.2928 118.089C84.5228 118.829 80.7228 120.619 79.2328 119.799C77.7428 118.979 78.2628 117.489 78.2628 117.489C78.2628 117.489 77.3728 116.149 78.3328 115.029C79.2928 113.909 83.7728 112.129 92.2628 112.129C100.753 112.129 121.353 108.449 128.193 106.499C135.033 104.539 150.673 96.3987 157.843 93.6287C165.013 90.8587 176.413 86.9487 176.413 86.9487L184.713 99.5587Z" fill="white" stroke="#031F43" stroke-width="2" stroke-miterlimit="10" stroke-linecap="round" stroke-linejoin="round"/>
<path d="M78.2727 117.519C78.2727 117.519 87.7327 114.619 96.0027 114.759" stroke="#031F43" stroke-width="2" stroke-miterlimit="10" stroke-linecap="round" stroke-linejoin="round"/>
<path d="M305.343 106.519C305.343 106.519 309.133 110.919 310.853 112.639C312.573 114.359 314.473 117.789 322.333 116.069C330.193 114.349 339.323 102.239 341.673 99.3487C344.023 96.4587 347.583 89.0487 348.313 88.7787C349.043 88.5087 354.393 85.6187 356.833 81.7387C359.273 77.8487 363.193 75.3987 364.813 74.3187C366.443 73.2387 370.503 69.8887 370.053 69.1687C369.603 68.4487 360.833 72.1487 360.563 71.8787C360.293 71.6087 370.683 62.6587 368.973 61.9387C367.253 61.2187 359.393 67.4487 358.853 66.8187C358.313 66.1887 368.073 53.8987 366.533 53.2587C364.993 52.6287 355.683 64.1087 355.413 63.2887C355.143 62.4787 362.053 51.1387 360.653 50.3687C357.663 48.7187 344.583 68.5087 344.043 68.7787C343.503 69.0487 340.003 58.9487 339.193 59.4787C338.383 60.0187 338.273 61.9487 339.403 68.9387C340.003 72.6887 338.793 79.6887 337.573 83.3187C336.363 86.9587 321.543 96.3887 321.133 96.5187C320.733 96.6487 318.653 96.1687 318.653 96.1687L305.343 106.519Z" fill="white" stroke="#031F43" stroke-width="2" stroke-miterlimit="10" stroke-linecap="round" stroke-linejoin="round"/>
</svg>
