<svg width="409" height="519" viewBox="0 0 409 519" fill="none" xmlns="http://www.w3.org/2000/svg">
<path d="M122.406 453.346C135.456 437.306 137.486 420.566 130.916 395.476C122.086 361.726 95.5858 359.136 85.3758 349.026C75.1558 338.916 75.2758 323.316 66.6558 312.966C65.1758 311.186 63.7658 309.606 62.4558 308.206C60.4558 306.076 57.0258 308.296 58.0858 311.016C59.7058 315.186 61.0058 319.946 61.0058 324.476C61.0058 336.446 64.5358 349.036 64.5358 349.036C64.5358 349.036 50.2558 341.346 48.2958 331.636C46.3458 321.926 49.4958 307.396 37.3158 299.006C28.1958 292.726 22.4158 282.866 19.0658 275.286C17.9658 272.786 14.2558 273.426 14.0158 276.146C13.3758 283.536 12.8058 292.986 13.1958 300.016C14.0858 316.126 22.1158 314.586 22.8858 325.126C23.6558 335.676 22.6358 361.246 28.6358 372.486C36.4058 387.046 54.9358 395.266 54.9358 395.266C54.9358 395.266 37.8358 395.476 23.9558 375.106C16.8958 364.746 8.68584 360.186 3.57584 358.236C1.50584 357.446 -0.554163 359.426 0.135837 361.526C4.52584 375.026 17.6858 414.116 28.2858 431.756C41.2058 453.266 56.7358 462.736 82.0858 466.626C97.8358 469.056 113.126 464.746 122.406 453.346Z" fill="black"/>
<path d="M103.976 454.916C97.3858 457.786 83.9158 459.676 72.8558 457.126C61.7958 454.576 45.6858 439.226 45.6858 439.226C45.6858 439.226 56.4558 438.536 61.4858 441.656C66.5158 444.776 76.2158 444.326 76.2158 444.326C76.2158 444.326 69.5258 434.996 59.4858 430.056C49.4458 425.116 42.7558 406.516 42.7558 406.516C42.7558 406.516 53.8358 419.196 61.8758 421.376C69.9158 423.556 84.1458 419.456 91.1258 426.936C105.046 441.856 121.886 439.236 121.886 439.236C121.886 439.236 114.976 450.136 103.976 454.916Z" fill="white"/>
<path d="M104.256 396.826C104.256 396.826 92.9458 398.556 88.0258 400.286C83.1058 402.016 79.2458 404.806 79.3758 406.936C79.5058 409.066 86.4258 406.406 87.7558 406.266C89.0858 406.136 86.0258 409.326 84.6958 414.776C83.3658 420.226 81.5058 427.016 81.9058 429.676C82.3058 432.336 84.8358 432.606 84.8358 432.606C84.8358 432.606 85.7658 436.866 88.1658 437.526C90.5558 438.196 90.4158 437.736 90.4158 437.736C90.4158 437.736 90.8558 440.256 93.3758 440.256C95.9058 440.256 95.5958 438.476 95.5958 438.476C95.5958 438.476 95.7458 435.956 97.3758 431.516C99.2258 426.476 100.806 422.626 100.806 422.626C100.806 422.626 102.406 429.676 104.666 431.136C106.926 432.596 107.596 432.196 107.596 432.196C107.596 432.196 108.526 430.336 107.196 426.476C105.866 422.616 106.526 420.626 107.326 417.566C108.126 414.506 113.846 406.126 113.846 406.126L104.256 396.826Z" fill="white" stroke="black" stroke-width="2" stroke-linecap="round" stroke-linejoin="round"/>
<path d="M172.516 319.536C172.516 319.536 166.926 343.006 162.236 352.836C157.546 362.676 143.906 382.116 139.216 387.926C134.526 393.736 116.636 414.076 116.636 414.076L101.656 397.536C101.656 397.536 114.396 377.416 117.306 365.126C120.216 352.836 137.646 310.136 142.336 305.446C147.026 300.756 174.076 319.756 174.076 319.756L172.516 319.536Z" fill="#00F863" stroke="#231F20" stroke-width="2" stroke-miterlimit="10"/>
<path d="M84.8358 432.616C84.8358 432.616 87.7358 421.596 90.4058 417.156" stroke="black" stroke-width="2" stroke-linecap="round" stroke-linejoin="round"/>
<path d="M90.1658 436.466C90.1658 436.466 93.0658 425.446 95.7358 421.006" stroke="black" stroke-width="2" stroke-linecap="round" stroke-linejoin="round"/>
<path d="M210.936 326.186L185.986 296.276C185.986 296.276 187.356 282.746 175.066 281.136C162.776 279.526 150.866 272.076 145.156 279.396C139.446 286.716 136.596 298.266 137.336 299.746C138.076 301.236 139.946 309.176 141.806 310.666C143.666 312.156 145.656 313.646 145.656 313.646C145.656 313.646 157.816 323.576 163.406 324.816C168.996 326.056 174.076 330.646 178.426 331.516C182.776 332.386 210.936 326.186 210.936 326.186Z" fill="white"/>
<path d="M240.566 34.4661L247.766 47.6061L235.526 57.1561L222.196 40.2261L240.566 34.4661Z" fill="white" stroke="black" stroke-width="2" stroke-linecap="round" stroke-linejoin="round"/>
<path d="M179.316 86.4261L194.096 88.9462L193.976 104.466L172.676 102.706L179.316 86.4261Z" fill="white" stroke="black" stroke-width="2" stroke-linecap="round" stroke-linejoin="round"/>
<path d="M162.776 324.956L163.626 331.916C163.626 331.916 174.986 334.846 180.476 336.066C185.976 337.286 196.226 331.916 196.226 331.916C196.226 331.916 189.636 332.226 183.996 330.296C179.896 328.896 173.526 323.386 173.526 323.386" fill="#00F863"/>
<path d="M162.776 324.956L163.626 331.916C163.626 331.916 174.986 334.846 180.476 336.066C185.976 337.286 196.226 331.916 196.226 331.916C196.226 331.916 189.636 332.226 183.996 330.296C179.896 328.896 173.526 323.386 173.526 323.386" stroke="#231F20" stroke-width="2" stroke-miterlimit="10"/>
<path d="M135.656 298.716C135.656 298.716 140.956 311.326 153.456 319.696C165.946 328.066 171.116 324.976 174.786 322.646C180.916 318.756 181.976 312.036 181.976 312.036" stroke="black" stroke-width="2" stroke-linecap="round" stroke-linejoin="round"/>
<path d="M182.936 507.156C173.096 499.916 169.416 471.796 193.186 459.386C205.206 453.116 214.736 440.596 219.956 431.356C221.636 428.376 226.176 429.416 226.406 432.836C226.696 437.076 231.036 424.446 229.516 428.406C225.676 438.396 229.316 442.616 229.316 442.616C229.316 442.616 222.826 444.246 238.536 434.656C254.246 425.066 296.186 412.736 303.076 395.376C309.966 378.016 309.666 357.486 326.086 345.996C336.176 338.936 343.396 331.466 348.106 325.746C350.386 322.976 354.856 325.056 354.246 328.596C353.076 335.396 350.366 343.716 344.226 350.266C331.666 363.656 333.566 374.496 332.536 382.756C331.496 391.016 328.286 398.916 328.286 398.916C328.286 398.916 347.106 380.816 350.486 364.696C353.866 348.576 362.996 333.306 376.756 319.706C383.886 312.666 388.636 302.546 391.566 294.426C392.846 290.876 398.056 291.596 398.356 295.366C398.846 301.656 398.446 309.356 395.546 317.036C388.756 334.996 379.306 359.016 379.306 359.016C379.306 359.016 394.946 352.546 399.456 339.326C400.226 337.076 401.176 334.916 402.216 332.896C404.016 329.386 409.356 331.156 408.776 335.056C408.136 339.326 407.806 344.216 408.096 349.616C409.176 369.926 393.956 389.366 386.216 401.906C378.476 414.446 388.976 426.046 383.366 444.416C378.406 460.656 363.796 505.786 338.406 512.936C284.956 527.966 291.786 504.326 248.076 512.746C206.326 520.776 190.496 512.716 182.936 507.156Z" fill="black"/>
<path d="M215.376 401.106C215.376 401.106 205.116 407.496 202.756 409.316C200.396 411.146 198.136 413.176 199.106 415.116C200.076 417.056 202.116 416.296 205.766 414.576C209.416 412.856 211.996 411.786 212.316 412.106C212.636 412.426 212.106 422.416 212.636 426.926C213.166 431.436 213.276 438.946 214.886 439.596C216.496 440.246 217.136 439.806 217.566 437.346C217.996 434.886 218.536 424.136 219.176 424.356C219.816 424.576 220.676 441.536 221.426 443.576C222.176 445.616 223.896 446.046 224.966 445.726C226.036 445.406 226.896 444.866 226.896 444.866C226.896 444.866 228.296 446.586 229.796 446.366C231.296 446.146 232.156 444.646 232.156 444.646C232.156 444.646 234.626 444.646 235.486 444.216C236.346 443.786 237.416 434.986 237.416 434.986C237.416 434.986 236.986 428.436 236.556 425.006C236.126 421.576 238.126 433.546 240.526 433.806C242.406 434.016 242.896 424.456 239.786 418.126C236.676 411.796 233.786 404.556 233.786 404.556L215.376 401.106Z" fill="white" stroke="black" stroke-width="2" stroke-linecap="round" stroke-linejoin="round"/>
<path d="M206.296 187.166C206.296 187.166 217.296 164.916 220.296 156.156C223.296 147.396 231.296 130.146 231.296 130.146C231.296 130.146 204.566 123.386 199.066 122.386C193.566 121.386 189.286 120.396 189.286 120.396L190.536 88.3861C190.536 88.3861 249.796 92.8861 253.796 94.8861C257.796 96.8861 272.046 123.396 272.046 131.896C272.046 140.396 242.786 202.666 242.786 202.666L206.296 187.166Z" fill="#00F863" stroke="#231F20" stroke-width="2" stroke-miterlimit="10"/>
<path d="M178.846 104.686C178.846 104.686 174.406 107.226 169.466 106.756C164.526 106.286 160.936 105.546 160.936 105.546L161.916 91.8362L163.786 91.0362C163.786 91.0362 163.566 85.7062 163.606 80.7062C163.646 75.7062 165.706 63.8962 168.156 58.4562C170.606 53.0262 172.216 49.5461 173.866 49.3061C175.516 49.0661 178.846 50.6661 178.846 50.6661C178.846 50.6661 177.466 60.5062 177.416 65.6462C177.366 70.7962 182.956 81.3561 183.826 82.6361C184.696 83.9261 186.576 86.5161 185.116 87.6561C183.656 88.7961 181.206 91.8761 179.896 91.7161C178.596 91.5561 178.286 92.8361 177.686 95.2661C177.086 97.6961 178.846 104.686 178.846 104.686Z" fill="#00F863" stroke="#231F20" stroke-width="2" stroke-miterlimit="10"/>
<path d="M178.116 84.9361C178.116 84.9361 181.676 82.5461 182.366 81.4161L178.116 84.9361Z" fill="#00F863"/>
<path d="M178.116 84.9361C178.116 84.9361 181.676 82.5461 182.366 81.4161" stroke="black" stroke-width="2" stroke-linecap="round" stroke-linejoin="round"/>
<path d="M176.256 80.9562C176.256 80.9562 179.816 78.5662 180.506 77.4362L176.256 80.9562Z" fill="#00F863"/>
<path d="M176.256 80.9562C176.256 80.9562 179.816 78.5662 180.506 77.4362" stroke="black" stroke-width="2" stroke-linecap="round" stroke-linejoin="round"/>
<path d="M174.926 77.1062C174.926 77.1062 178.486 74.7162 179.176 73.5862L174.926 77.1062Z" fill="#00F863"/>
<path d="M174.926 77.1062C174.926 77.1062 178.486 74.7162 179.176 73.5862" stroke="black" stroke-width="2" stroke-linecap="round" stroke-linejoin="round"/>
<path d="M259.816 215.426C259.816 215.426 293.576 145.906 295.326 136.406C297.076 126.906 290.076 113.146 284.076 102.646C278.076 92.1461 257.316 44.6361 256.316 41.3861C255.316 38.1361 254.316 35.6361 254.316 35.6361C254.316 35.6361 245.066 43.6361 240.816 45.6361C236.566 47.6361 227.316 59.3861 227.316 59.3861C227.316 59.3861 242.316 88.8961 248.066 99.3961C253.816 109.896 259.566 124.156 259.566 125.656C259.566 127.156 247.066 153.416 243.816 159.916C240.566 166.416 230.566 186.676 230.316 191.176C230.056 195.666 259.816 215.426 259.816 215.426Z" fill="#00F863" stroke="#231F20" stroke-width="2" stroke-miterlimit="10"/>
<path d="M226.456 46.7961C226.456 46.7961 221.426 45.8761 217.956 42.3261C214.476 38.7761 212.216 35.8961 212.216 35.8961L221.806 26.0461L223.746 26.6361C223.746 26.6361 227.016 22.4261 230.266 18.6261C233.516 14.8261 242.716 7.13612 248.086 4.55612C253.456 1.97612 256.936 0.35612 258.346 1.24612C259.756 2.12612 261.276 5.49612 261.276 5.49612C261.276 5.49612 253.876 12.1261 250.516 16.0261C247.156 19.9261 244.626 31.6061 244.456 33.1461C244.296 34.6861 244.056 37.8861 242.206 37.8061C240.356 37.7261 236.496 38.5061 235.606 37.5461C234.716 36.5761 233.646 37.3661 231.626 38.8361C229.606 40.3061 226.456 46.7961 226.456 46.7961Z" fill="#00F863" stroke="#231F20" stroke-width="2" stroke-miterlimit="10"/>
<path d="M238.626 31.2261C238.626 31.2261 242.896 31.6961 244.136 31.2761L238.626 31.2261Z" fill="#00F863"/>
<path d="M238.626 31.2261C238.626 31.2261 242.896 31.6961 244.136 31.2761" stroke="black" stroke-width="2" stroke-linecap="round" stroke-linejoin="round"/>
<path d="M239.776 26.9861C239.776 26.9861 244.046 27.4561 245.286 27.0361L239.776 26.9861Z" fill="#00F863"/>
<path d="M239.776 26.9861C239.776 26.9861 244.046 27.4561 245.286 27.0361" stroke="black" stroke-width="2" stroke-linecap="round" stroke-linejoin="round"/>
<path d="M241.246 23.1861C241.246 23.1861 245.516 23.6561 246.756 23.2361L241.246 23.1861Z" fill="#00F863"/>
<path d="M241.246 23.1861C241.246 23.1861 245.516 23.6561 246.756 23.2361" stroke="black" stroke-width="2" stroke-linecap="round" stroke-linejoin="round"/>
<path d="M238.826 497.966C238.826 497.966 268.486 485.756 275.446 463.806C278.566 453.976 296.046 429.846 300.646 426.566C305.246 423.286 310.786 418.986 310.786 418.986C310.786 418.986 300.726 431.126 298.726 449.526C296.726 467.916 293.416 473.286 293.416 473.286C293.416 473.286 299.786 470.776 306.416 462.636C313.046 454.496 323.096 446.526 323.096 446.526C323.096 446.526 314.846 468.796 312.816 477.836C310.786 486.876 302.096 494.716 302.096 494.716C302.096 494.716 308.216 495.096 313.456 491.416C315.306 490.116 319.546 485.196 319.546 485.196C319.546 485.196 315.586 497.886 306.206 501.106C296.816 504.326 283.986 500.606 272.416 497.976C260.836 495.346 238.826 497.966 238.826 497.966Z" fill="white"/>
<path d="M158.246 268.866C158.246 268.866 160.656 260.106 167.226 251.776C173.796 243.446 178.836 238.856 181.026 228.556C183.216 218.256 191.976 195.696 192.416 189.996C192.856 184.296 196.796 174.006 196.796 174.006C196.796 174.006 202.276 181.456 220.236 186.716C238.196 191.976 256.386 205.116 258.576 208.846C260.766 212.576 263.396 215.636 263.396 215.636C263.396 215.636 251.346 246.306 249.596 257.476C247.846 268.646 247.186 277.196 251.346 289.236C255.506 301.276 258.136 340.936 256.386 354.736C254.636 368.536 251.126 380.586 249.376 385.406C247.626 390.226 245.216 408.406 245.216 408.406C245.216 408.406 236.676 412.786 226.816 409.936C216.956 407.086 212.796 401.176 212.796 401.176C212.796 401.176 220.466 379.046 221.336 369.416C222.216 359.776 222.646 344.226 220.026 336.336C217.396 328.446 214.546 320.566 214.546 320.566C214.546 320.566 210.386 323.856 202.936 320.566C195.486 317.276 182.876 283.756 178.276 281.346C173.666 278.936 158.246 268.866 158.246 268.866Z" fill="#00F863" stroke="#231F20" stroke-width="2" stroke-miterlimit="10"/>
<path d="M186.226 293.816C186.596 293.936 200.466 300.746 200.466 301.236C200.466 301.726 211.866 326.056 211.866 326.056C211.866 326.056 198.796 320.436 192.816 315.676C186.836 310.916 182.066 297.726 182.926 295.646C183.786 293.576 186.226 293.816 186.226 293.816Z" fill="#00F863" stroke="#231F20" stroke-width="2" stroke-miterlimit="10"/>
<path d="M40.8458 237.196C40.8458 237.196 35.0858 255.926 51.8358 267.246C66.5758 277.206 71.6458 283.156 76.5258 289.986C80.4758 295.516 85.6858 307.316 85.6858 307.316L107.966 272.386C107.966 272.386 106.186 260.666 95.4958 250.746C84.8058 240.826 75.1358 213.026 75.1358 213.026L40.8458 237.196Z" fill="#00F863" stroke="black" stroke-width="2" stroke-linecap="round" stroke-linejoin="round"/>
<path d="M51.2458 243.006L70.1658 229.386" stroke="black" stroke-width="2" stroke-linecap="round" stroke-linejoin="round"/>
<path d="M54.9958 258.936L80.5458 239.946" stroke="black" stroke-width="2" stroke-linecap="round" stroke-linejoin="round"/>
<path d="M73.2358 257.016L85.1458 247.736" stroke="black" stroke-width="2" stroke-linecap="round" stroke-linejoin="round"/>
<path d="M131.516 471.576C131.516 471.576 145.936 475.176 155.206 465.396C164.476 455.616 179.406 433.466 179.406 433.466L218.026 470.026C218.026 470.026 189.646 493.366 179.916 500.406C162.286 513.166 149.016 511.736 149.016 511.736L131.516 471.576Z" fill="#00F863" stroke="black" stroke-width="2" stroke-linecap="round" stroke-linejoin="round"/>
<path d="M179.586 450.396L198.366 469.356" stroke="black" stroke-width="2" stroke-linecap="round" stroke-linejoin="round"/>
<path d="M169.446 460.346L188.226 479.306" stroke="black" stroke-width="2" stroke-linecap="round" stroke-linejoin="round"/>
<path d="M163.626 467.096L172.076 476.296" stroke="black" stroke-width="2" stroke-linecap="round" stroke-linejoin="round"/>
<path d="M336.666 182.196L338.556 135.856L390.506 187.066L383.696 249.986L329.526 282.106L288.656 198.416L336.666 182.196Z" stroke="black" stroke-width="2" stroke-linecap="round" stroke-linejoin="round"/>
<path d="M336.666 182.196L383.696 249.986" stroke="black" stroke-width="2" stroke-linecap="round" stroke-linejoin="round"/>
<path d="M343.786 152.226L342.426 180.206L377.226 229.096L380.176 189.076L343.786 152.226Z" stroke="black" stroke-width="2" stroke-linecap="round" stroke-linejoin="round"/>
<path d="M332.456 195.796L361.406 242.166" stroke="black" stroke-width="2" stroke-linecap="round" stroke-linejoin="round"/>
<path d="M326.136 206.026L345.956 241.076" stroke="black" stroke-width="2" stroke-linecap="round" stroke-linejoin="round"/>
<path d="M316.616 210.536L336.426 245.586" stroke="black" stroke-width="2" stroke-linecap="round" stroke-linejoin="round"/>
<path d="M154.176 305.256C154.176 305.256 155.756 307.786 156.066 309.736C156.376 311.686 155.966 312.406 155.966 312.406L159.966 311.486" stroke="black" stroke-width="2" stroke-linecap="round" stroke-linejoin="round"/>
<path d="M167.524 319.878C167.964 318.999 167.328 317.789 166.103 317.176C164.878 316.563 163.528 316.779 163.088 317.658C162.648 318.537 163.285 319.747 164.509 320.36C165.734 320.973 167.084 320.757 167.524 319.878Z" stroke="black" stroke-width="2" stroke-linecap="round" stroke-linejoin="round"/>
<path d="M138.446 305.346L162.506 290.286C162.506 290.286 165.396 294.436 165.076 297.406C164.756 300.376 158.496 303.586 157.136 303.346C155.776 303.106 151.116 299.416 150.236 299.976C149.356 300.536 151.916 307.196 151.276 308.076C150.636 308.956 144.546 312.196 142.936 312.036C140.456 311.786 138.446 305.346 138.446 305.346Z" stroke="black" stroke-width="2" stroke-linecap="round" stroke-linejoin="round"/>
<path d="M183.536 299.886C183.536 299.886 181.326 298.406 181.596 296.376C181.866 294.346 182.376 288.826 179.236 287.566C176.236 286.366 174.616 288.736 173.596 290.486C172.576 292.236 168.996 294.036 165.036 291.736C162.286 290.146 151.146 281.786 151.146 281.786C151.146 281.786 149.356 290.576 143.856 292.216C139.256 293.586 140.996 301.536 138.306 303.226C130.766 307.956 120.696 297.566 120.696 297.566C120.696 297.566 129.476 295.186 131.206 288.606C133.506 279.836 137.036 266.746 150.596 263.516C164.156 260.286 171.266 263.336 175.046 268.316C178.826 273.296 179.846 274.406 182.986 277.176C186.126 279.946 188.526 282.986 189.816 287.146C189.816 287.146 190.646 292.866 188.706 295.726C186.766 298.586 183.536 299.886 183.536 299.886Z" fill="black"/>
<path d="M178.786 327.076C178.786 327.076 183.626 330.236 186.786 330.796C189.946 331.356 193.856 328.196 193.856 328.196L186.786 319.266L178.786 327.076Z" fill="white" stroke="black" stroke-width="2" stroke-linecap="round" stroke-linejoin="round"/>
<path d="M191.426 327.636C191.426 327.636 197.896 326.686 202.666 325.476C212.236 323.046 220.596 315.846 225.206 312.346C232.016 307.156 242.716 299.536 252.926 290.296C256.446 287.116 260.056 278.166 260.056 278.166L277.166 267.756L281.626 283.746C281.626 283.746 275.676 298.626 261.916 308.856C248.156 319.086 223.796 331.546 207.236 332.656C190.686 333.776 186.776 330.796 186.776 330.796L191.426 327.636Z" fill="white" stroke="black" stroke-width="2" stroke-linecap="round" stroke-linejoin="round"/>
<path d="M226.906 444.856C226.906 444.856 226.806 429.436 225.926 425.106" stroke="black" stroke-width="2" stroke-linecap="round" stroke-linejoin="round"/>
<path d="M232.456 443.636C232.456 443.636 232.356 428.216 231.476 423.886" stroke="black" stroke-width="2" stroke-linecap="round" stroke-linejoin="round"/>
</svg>
