<svg width="322" height="391" viewBox="0 0 322 391" fill="none" xmlns="http://www.w3.org/2000/svg">
<path d="M137.811 161.021L133.233 153.739L133.414 92.9593C133.429 88.1577 137.326 84.2744 142.128 84.2744H179.926C184.706 84.2744 188.597 88.1287 188.633 92.9087L189.183 153.739L183.773 161.021H137.811Z" stroke="white" stroke-width="1.44628" stroke-linecap="round" stroke-linejoin="round"/>
<path d="M154.573 109.989H185.502V138.033C185.502 138.033 179.355 139.378 172.247 139.378C165.138 139.378 154.573 138.994 154.573 138.994V109.989Z" stroke="white" stroke-width="1.44628" stroke-linecap="round" stroke-linejoin="round"/>
<path d="M144.948 214.034V172.193H177.453V213.846C177.446 213.846 145.129 213.846 144.948 214.034Z" stroke="white" stroke-width="1.44628" stroke-linecap="round" stroke-linejoin="round"/>
<path d="M147.559 213.955V208.271C147.559 208.271 153.091 204.163 160.828 204.163C168.566 204.163 174.698 208.032 174.698 208.032V213.839L147.559 213.955Z" stroke="white" stroke-width="1.44628" stroke-linecap="round" stroke-linejoin="round"/>
<path d="M156.865 213.948H152.259V228.302H156.865V213.948Z" stroke="white" stroke-width="1.44628" stroke-linecap="round" stroke-linejoin="round"/>
<path d="M169.585 213.948H164.979V228.302H169.585V213.948Z" stroke="white" stroke-width="1.44628" stroke-linecap="round" stroke-linejoin="round"/>
<path d="M144.948 214.034L147.147 266.324H174.459L177.28 213.846" stroke="white" stroke-width="1.44628" stroke-linecap="round" stroke-linejoin="round"/>
<path d="M147.146 266.324V366.653H174.12V266.324" stroke="white" stroke-width="1.44628" stroke-linecap="round" stroke-linejoin="round"/>
<path d="M189.833 161.021H132.17V366.761H189.833V161.021Z" stroke="white" stroke-width="1.44628" stroke-linecap="round" stroke-linejoin="round"/>
<path d="M192.046 366.718H129.524V371.982H192.046V366.718Z" stroke="white" stroke-width="1.44628" stroke-linecap="round" stroke-linejoin="round"/>
<path d="M230.683 135.936L227.393 135.871C227.393 135.871 226.785 134.128 226.59 133.99C226.388 133.853 214.651 134.055 214.311 135.061C213.979 136.066 213.574 146.935 213.639 149.957C213.704 152.98 214.008 158.505 214.008 158.505L226.858 158.252L226.72 155.663C226.72 155.663 227.66 156.4 229.403 156.068C231.146 155.735 233.764 154.39 234.096 151.57C234.429 148.75 234.566 139.356 233.764 138.221C232.961 137.078 230.683 135.936 230.683 135.936Z" fill="white"/>
<path d="M260.1 28.875C260.1 28.875 255.827 38.0588 255.082 40.3005C254.337 42.5423 254.337 42.5423 254.337 42.5423L257.468 43.316L252.493 50.4823C252.493 50.4823 254.655 52.1528 254.446 53.4327C254.229 54.7127 258.502 68.6982 267.151 74.3603C275.8 80.0153 286.9 66.0298 287.97 63.1517C289.04 60.2664 289.894 49.0578 287.862 43.0774C285.83 37.0971 277.825 27.7035 277.825 27.7035L260.1 28.875Z" fill="white"/>
<path d="M245.262 354.468C245.262 354.468 236.353 359.718 230.943 361.15C225.534 362.581 218.694 364.013 217.898 367.195C217.103 370.377 217.58 371.172 217.58 371.172C217.58 371.172 220.444 374.036 236.353 371.968C252.262 369.9 272.126 369.769 272.126 369.769C273.262 369.22 294.84 349.456 270.564 355.741C265.632 357.02 245.262 354.468 245.262 354.468Z" fill="white"/>
<path d="M275.814 363.695C275.814 363.695 268.178 374.354 264.678 376.9C261.178 379.445 259.11 383.422 259.11 384.854C259.11 386.286 260.542 388.99 267.86 388.195C275.178 387.399 286.314 383.9 292.049 381.195C297.783 378.49 300.64 376.9 302.39 375.627C304.14 374.354 303.026 368.309 303.026 368.309L275.814 363.695Z" fill="white"/>
<path d="M241.979 175.26C241.979 175.26 239.05 181.753 238.471 194.625C237.893 207.497 238.276 263.772 239.816 282.79C241.357 301.809 245.197 340.034 244.813 343.874C244.43 347.714 242.507 354.244 242.507 354.244C242.507 354.244 244.618 358.662 250.186 360.007C255.754 361.352 267.035 361.562 267.035 361.562L270.933 360.969C270.933 360.969 269.783 362.892 273.045 364.621C276.313 366.349 296.482 370.767 300.509 370.767C304.545 370.767 304.928 368.272 304.928 368.272C304.928 368.272 303.583 348.104 303.395 340.417C303.199 332.737 304.928 285.292 305.318 272.999C305.702 260.706 307.618 204.431 306.663 199.051C305.709 193.671 299.172 158.519 299.172 158.519L241.979 175.26Z" fill="#808080" stroke="#231F20" stroke-width="1.44628" stroke-miterlimit="10" stroke-linecap="round" stroke-linejoin="round"/>
<path d="M282.46 206.145C282.46 206.145 278.295 222.473 279.82 224.592C281.346 226.711 283.559 226.545 283.559 226.545C283.559 226.545 284.817 228.237 287.182 228.83C289.554 229.423 292.432 227.897 292.432 227.897C292.432 227.897 294.551 227.897 296.077 227.138C297.602 226.378 298.702 224.852 298.702 223.413C298.702 221.974 300.567 209.862 300.48 209.522C300.394 209.182 282.46 206.145 282.46 206.145Z" fill="white" stroke="black" stroke-width="1.44628" stroke-linecap="round" stroke-linejoin="round"/>
<path d="M256.745 76.573C256.745 76.573 247.192 77.7662 242.145 87.5864C237.097 97.4066 229.541 133.78 229.541 133.78L227.834 136.015C227.834 136.015 233.547 141.605 232.513 147.903C231.479 154.202 230.119 155.952 230.119 155.952L237.452 154.679L242.123 170.4C242.123 170.4 240.872 173.741 241.986 175.267C243.099 176.793 250.056 182.78 265.495 178.463C280.934 174.146 287.753 170.95 287.753 170.95L285.251 193.765C285.251 193.765 283.306 195.153 283.306 196.267C283.306 197.38 282.474 206.145 282.474 206.145C282.474 206.145 285.953 208.647 292.49 209.898C299.027 211.149 301.392 211.149 301.392 211.149C301.392 211.149 306.258 200.439 306.678 199.051C307.097 197.662 309.599 189.035 310.988 184.588C312.376 180.134 320.866 150.369 320.721 134.099C320.584 117.821 322.11 104.334 312.933 91.2527C303.749 78.1784 289.981 71.916 289.981 71.916L263.991 77.8457L256.745 76.573Z" fill="white" stroke="black" stroke-width="1.44628" stroke-linecap="round" stroke-linejoin="round"/>
<path d="M258.018 80.601L257.396 86.5597C257.396 86.5597 261.106 88.8087 261.106 88.6423C261.106 88.476 267.838 79.0318 267.838 79.0318L261.503 76.8335L258.018 80.601Z" fill="#00F863" stroke="black" stroke-width="1.44628" stroke-linecap="round" stroke-linejoin="round"/>
<path d="M257.403 86.5596C257.403 86.5596 246.26 113.337 242.81 126.216C239.361 139.096 235.073 165.627 235.738 168.014C236.403 170.4 245.884 181.855 245.884 181.855C245.884 181.855 256.427 168.549 257.085 167.623C257.75 166.698 255.812 141.88 255.942 128.878C256.073 115.876 261.106 88.6494 261.106 88.6494L257.403 86.5596Z" fill="#00F863" stroke="black" stroke-width="1.44628" stroke-linecap="round" stroke-linejoin="round"/>
<path d="M287.746 170.95C287.746 170.95 290.602 152.242 290.993 144.895C291.398 137.302 291.456 127.164 291.477 120.713C291.499 113.005 291.6 108.68 291.6 108.68" stroke="black" stroke-width="1.44628" stroke-linecap="round" stroke-linejoin="round"/>
<path d="M227.118 134.641L226.858 158.252L214.008 158.505L212.988 134.641H227.118Z" stroke="black" stroke-width="1.44628" stroke-linecap="round" stroke-linejoin="round"/>
<path d="M270.933 360.969C270.933 360.969 271.512 341.379 270.933 333.113C270.355 324.855 267.281 280.672 265.748 269.723C264.215 258.775 258.64 226.313 258.64 226.313" stroke="black" stroke-width="1.44628" stroke-linecap="round" stroke-linejoin="round"/>
<path d="M258.495 53.9678C255.979 53.5773 252.558 51.0608 252.493 50.4823C252.428 49.9038 257.468 43.316 257.468 43.316L254.113 42.5422C254.113 42.5422 256.745 33.1993 259.291 30.0681" stroke="black" stroke-width="1.44628" stroke-linecap="round" stroke-linejoin="round"/>
<path d="M260.368 44.0897C260.368 44.0897 261.785 43.2509 264.562 44.2199C267.339 45.1889 267.918 45.8976 267.918 45.8976" stroke="black" stroke-width="1.44628" stroke-linecap="round" stroke-linejoin="round"/>
<path d="M262.819 43.8295C262.819 43.8295 261.981 45.5072 264.237 46.4762C266.5 47.4452 266.544 45.377 266.544 45.377" stroke="black" stroke-width="1.44628" stroke-linecap="round" stroke-linejoin="round"/>
<path d="M256.557 28.781C256.239 29.8295 256.817 32.1363 260.824 31.8182C264.83 31.4928 269.414 28.4628 271.475 31.0444C273.544 33.626 271.143 39.7582 272.372 44.408C273.601 49.0578 276.653 52.6373 272.82 55.4286C271.28 56.5567 278.533 56.4048 278.533 56.4048C278.533 56.4048 279.661 49.8315 282.973 49.8315C285.237 49.8315 286.48 51.8057 286.806 53.8739C287.131 55.942 285.237 57.7716 285.041 57.7065C284.846 57.6414 286.777 65.6466 289.937 65.972C293.104 66.2974 297.364 63.7736 296.395 60.9389C295.426 58.097 293.292 55.4503 293.748 51.191C294.204 46.9317 296.011 40.7272 293.292 33.7562C290.573 26.7851 288.317 22.9742 283.349 21.6147C278.374 20.2552 271.663 21.875 271.663 21.875C271.663 21.875 268.496 20.5155 264.88 21.7449C261.265 22.9742 257.917 24.2614 256.557 28.781Z" fill="black"/>
<path d="M286.914 64.8727L263.723 77.571L269.581 88.0637L293.141 73.4202L286.914 64.8727Z" fill="white" stroke="black" stroke-width="1.44628" stroke-linecap="round" stroke-linejoin="round"/>
<path d="M257.606 73.4491C257.663 73.789 261.229 77.2817 261.229 77.2817C261.229 77.2817 253.722 83.291 253.722 83.1247C253.722 82.9584 253.556 75.4233 253.556 75.4233L257.606 73.4491Z" fill="white" stroke="black" stroke-width="1.44628" stroke-linecap="round" stroke-linejoin="round"/>
<path d="M252.811 54.0329C252.811 54.0329 253.73 51.878 254.778 52.4999C255.183 52.7385 254.467 52.7675 255.19 53.0278C255.328 53.0784 253.903 55.1321 256.13 56.0505C259.023 57.2364 263.572 57.8222 267.252 56.9833C270.933 56.1445 278.324 53.0061 278.324 53.0061C278.324 53.0061 279.683 62.8191 278.389 65.7261C277.094 68.6331 270.637 75.7198 267.722 76.8118C263.123 78.5328 259.146 77.0938 253.722 75.3511C248.299 73.6083 248.559 68.1197 249.268 64.0484C249.969 59.9699 252.811 54.0329 252.811 54.0329Z" fill="black"/>
<path d="M253.505 59.4131C253.505 59.4131 254.908 59.8904 257.15 59.847C259.421 59.8036 261.706 59.5433 261.706 59.5433C261.706 59.5433 260.643 62.9131 256.991 62.9637C254.077 62.9999 253.505 59.4131 253.505 59.4131Z" fill="white"/>
<path d="M283.125 225.511C283.125 225.511 283.899 220.687 284.333 218.879" stroke="black" stroke-width="1.44628" stroke-linecap="round" stroke-linejoin="round"/>
<path d="M287.609 227.926C287.609 227.926 288.382 223.103 288.816 221.295" stroke="black" stroke-width="1.44628" stroke-linecap="round" stroke-linejoin="round"/>
<path d="M292.258 227.492C292.258 227.492 293.032 222.669 293.466 220.861" stroke="black" stroke-width="1.44628" stroke-linecap="round" stroke-linejoin="round"/>
<path d="M285.237 193.765C285.237 193.765 288.194 196.173 296.619 198.559" stroke="black" stroke-width="1.44628" stroke-linecap="round" stroke-linejoin="round"/>
<path d="M227.118 134.641C227.118 135.415 223.958 136.044 220.053 136.044C216.155 136.044 212.988 135.415 212.988 134.641C212.988 133.867 216.148 133.043 220.053 133.043C223.951 133.043 227.118 133.86 227.118 134.641Z" fill="white" stroke="black" stroke-width="1.44628" stroke-linecap="round" stroke-linejoin="round"/>
<path d="M209.474 139.703C209.474 139.703 208.924 137.201 210.023 136.5C211.122 135.798 215.114 135.986 216.351 137.902C216.98 138.879 214.629 140.325 214.629 140.325C214.629 140.325 215.801 141.337 215.721 143.138C215.642 144.939 214.08 145.17 214.08 145.17C214.08 145.17 215.953 148.135 215.642 149.386C215.331 150.637 214.08 150.398 214.08 150.398C214.08 150.398 215.172 152.973 214.239 153.754C213.299 154.535 212.041 153.262 211.491 151.931C210.941 150.601 211.397 149.429 211.397 149.429C211.397 149.429 210.023 147.195 210.095 146.023C210.175 144.852 210.406 144.302 210.406 144.302L209.474 139.703Z" fill="white" stroke="black" stroke-width="1.44628" stroke-linecap="round" stroke-linejoin="round"/>
<path d="M229.541 133.781C229.541 133.781 231.884 131.806 236.389 131.966" stroke="black" stroke-width="1.44628" stroke-linecap="round" stroke-linejoin="round"/>
<path d="M227.096 153.342C227.096 153.342 229.729 152.893 231.399 151.606" stroke="black" stroke-width="1.44628" stroke-linecap="round" stroke-linejoin="round"/>
<path d="M230.119 155.952C230.119 155.952 228.073 156.277 227.451 155.938" stroke="black" stroke-width="1.44628" stroke-linecap="round" stroke-linejoin="round"/>
<path d="M209.474 139.703C209.105 139.906 213.06 140.81 214.63 140.325" stroke="black" stroke-width="1.44628" stroke-linecap="round" stroke-linejoin="round"/>
<path d="M210.457 144.179C210.088 144.382 212.959 145.315 214.528 144.837" stroke="black" stroke-width="1.44628" stroke-linecap="round" stroke-linejoin="round"/>
<path d="M211.397 149.437C211.397 149.437 213.14 150.413 214.08 150.406" stroke="black" stroke-width="1.44628" stroke-linecap="round" stroke-linejoin="round"/>
<path d="M80.0174 10.0662C80.0174 10.0662 83.4451 18.5413 83.3583 21.969C83.2715 25.3967 81.1311 36.3522 80.0174 39.7727C78.9038 43.2003 77.6238 46.1941 75.1362 47.7344C72.6559 49.2747 73.1693 49.1879 73.2561 51.2416C73.3429 53.2953 72.1425 61.3439 72.1425 61.3439L65.4679 71.0194L48.0909 46.7943C48.0909 46.7943 48.0041 44.9937 49.6312 44.4803C51.2582 43.9669 52.9721 43.0268 52.9721 43.0268V36.0051C52.9721 36.0051 49.1178 27.1033 51.6053 25.3895C54.0857 23.6756 55.7995 24.9628 55.7995 24.9628C55.7995 24.9628 53.3192 15.2872 58.8801 13.6602C64.441 12.0331 80.0174 10.0662 80.0174 10.0662Z" fill="white"/>
<path d="M61.3675 357.961L60.3913 368.092C60.3913 368.092 74.4202 369.068 77.7394 369.068C81.0513 369.068 83.9728 370.435 89.823 371.208C95.6732 371.982 116.326 371.013 116.326 371.013C116.326 371.013 115.936 363.999 113.6 362.242C111.264 360.484 94.9139 354.8 91.978 354.041C89.042 353.282 61.3675 357.961 61.3675 357.961Z" fill="#808080" stroke="#231F20" stroke-width="1.44628" stroke-miterlimit="10" stroke-linecap="round" stroke-linejoin="round"/>
<path d="M88.4925 152.944C88.4925 152.944 88.1887 157.008 89.0926 159.72C89.9966 162.431 95.7166 179.599 95.4201 200.678C95.1164 221.758 92.2889 291.403 92.5999 302.995C92.9108 314.587 90.4088 333.692 88.8396 336.512C87.2704 339.332 86.6485 340.894 86.6485 340.894L91.9707 354.048C91.9707 354.048 85.3902 355.618 81.008 357.18C76.6258 358.742 60.3335 360 60.3335 360C60.3335 360 58.1424 347.786 58.1424 341.516C58.1424 335.254 60.3335 263.837 59.7116 256.005C59.0824 248.174 55.0112 148.258 55.0112 148.258L88.4925 152.944Z" fill="#808080" stroke="#231F20" stroke-width="1.44628" stroke-miterlimit="10" stroke-linecap="round" stroke-linejoin="round"/>
<path d="M64.4265 347.685C64.4265 347.685 75.3386 344.272 79.3014 343.715C83.7632 343.093 86.6557 340.887 86.6557 340.887" stroke="black" stroke-width="1.44628" stroke-linecap="round" stroke-linejoin="round"/>
<path d="M91.949 358.033C91.949 358.033 93.7352 355.502 97.5823 355.871" stroke="black" stroke-width="1.44628" stroke-linecap="round" stroke-linejoin="round"/>
<path d="M95.7961 359.718C95.7961 359.718 97.5823 357.187 101.429 357.556" stroke="black" stroke-width="1.44628" stroke-linecap="round" stroke-linejoin="round"/>
<path d="M100.207 360.94C100.207 360.94 101.993 358.409 105.841 358.778" stroke="black" stroke-width="1.44628" stroke-linecap="round" stroke-linejoin="round"/>
<path d="M39.9844 365.322C39.9844 365.322 42.0742 371.606 44.4172 375.309C46.7529 379.011 48.5102 385.056 48.5102 386.221C48.5102 387.385 41.8862 389.533 38.9575 389.728C36.0288 389.923 26.0929 387.775 23.5619 384.659C21.0309 381.542 19.8594 378.621 18.8832 377.84C17.907 377.059 15.5712 373.942 15.5712 373.942C15.5712 373.942 15.9617 362.249 16.3522 361.468C16.7427 360.687 31.1621 358.351 34.8645 359.71C38.567 361.077 39.9844 365.322 39.9844 365.322Z" fill="#808080" stroke="#231F20" stroke-width="1.44628" stroke-miterlimit="10" stroke-linecap="round" stroke-linejoin="round"/>
<path d="M71.6144 212.783C71.3035 214.353 62.8428 250.372 60.9626 260.706C59.0824 271.039 44.3594 337.134 44.3594 337.134C44.3594 337.134 45.2994 347.468 44.9885 349.977C44.6775 352.486 40.2881 355.928 40.2881 355.928L39.9771 365.322C39.9771 365.322 34.3367 361.88 28.7034 362.502C23.063 363.131 18.0516 367.513 15.8605 362.813C13.6694 358.112 17.4297 348.719 17.4297 348.719C17.4297 348.719 18.3698 341.198 18.3698 337.127C18.3698 333.056 21.501 300.796 21.8119 285.444C22.1229 270.099 28.7034 243.473 29.6435 236.271C30.5836 229.068 28.0743 182.086 27.7633 173.944C27.4524 165.801 32.1456 152.018 32.1456 152.018L65.9306 144.107" fill="#808080"/>
<path d="M71.6144 212.783C71.3035 214.353 62.8427 250.372 60.9626 260.706C59.0824 271.039 44.3594 337.134 44.3594 337.134C44.3594 337.134 45.2994 347.468 44.9885 349.977C44.6775 352.486 40.2881 355.928 40.2881 355.928L39.9771 365.322C39.9771 365.322 34.3367 361.88 28.7034 362.502C23.063 363.131 18.0516 367.513 15.8605 362.813C13.6694 358.112 17.4297 348.719 17.4297 348.719C17.4297 348.719 18.3698 341.198 18.3698 337.127C18.3698 333.056 21.501 300.796 21.8119 285.444C22.1229 270.099 28.7034 243.473 29.6435 236.271C30.5836 229.068 28.0743 182.086 27.7633 173.944C27.4524 165.801 32.1456 152.018 32.1456 152.018L65.9306 144.107" stroke="#231F20" stroke-width="1.44628" stroke-miterlimit="10" stroke-linecap="round" stroke-linejoin="round"/>
<path d="M12.0785 128.849C12.0785 128.849 15.282 145.531 14.6095 150.926C13.937 156.321 17.1405 173.003 18.4855 178.897C19.8305 184.791 23.2003 200.974 23.3739 205.017C23.5402 209.059 24.22 217.484 24.7189 219.848C25.2251 222.206 30.7861 229.625 32.471 229.958C34.1559 230.298 37.5257 230.464 39.3769 229.791C41.2282 229.119 43.0866 227.94 43.0866 227.94C43.0866 227.94 45.6176 228.786 46.2901 228.446C46.9627 228.107 44.7715 216.818 44.4389 213.788C44.099 210.758 39.0443 203.339 37.6993 201.148C36.3542 198.957 32.9844 190.192 32.6445 188.341C32.3047 186.49 30.6342 164.977 30.034 157.449C29.4338 149.921 29.1012 136.608 29.1012 136.608L12.0785 128.849Z" fill="white" stroke="black" stroke-width="1.44628" stroke-linecap="round" stroke-linejoin="round"/>
<path d="M43.0867 227.94C43.0867 227.94 41.2716 223.602 40.5918 220.911C39.9193 218.221 39.9193 216.334 39.9193 216.334" stroke="black" stroke-width="1.44628" stroke-linecap="round" stroke-linejoin="round"/>
<path d="M20.6982 357.881C20.6982 357.881 35.3996 355.408 40.2953 355.921" stroke="black" stroke-width="1.44628" stroke-linecap="round" stroke-linejoin="round"/>
<path d="M26.1363 352.313C26.1363 352.313 34.7416 347.714 37.7065 340.15" stroke="black" stroke-width="1.44628" stroke-linecap="round" stroke-linejoin="round"/>
<path d="M26.9679 366.103C26.9679 366.103 32.7819 365.069 36.6652 366.363" stroke="black" stroke-width="1.44628" stroke-linecap="round" stroke-linejoin="round"/>
<path d="M28.2551 369.979C28.2551 369.979 34.0691 368.945 37.9523 370.239" stroke="black" stroke-width="1.44628" stroke-linecap="round" stroke-linejoin="round"/>
<path d="M29.4554 373.775C29.4554 373.775 35.2695 372.741 39.1527 374.036" stroke="black" stroke-width="1.44628" stroke-linecap="round" stroke-linejoin="round"/>
<path d="M46.724 53.9823C46.724 53.9823 24.5309 63.3252 21.5299 66.4998C18.5289 69.6672 9.51856 96.1991 6.84295 104.71C4.16734 113.222 1 129.073 1 129.073C1 129.073 11.0155 131.076 16.5185 133.412C22.0289 135.747 29.3687 139.421 29.3687 139.421C29.3687 139.421 27.5319 154.94 30.034 157.442C32.536 159.944 44.5546 158.613 52.8924 156.776C61.2301 154.94 88.6009 154.274 88.6009 154.274C88.6009 154.274 95.2755 150.268 96.447 147.766C97.6184 145.264 96.2806 114.726 96.2806 114.726L105.457 113.055C105.457 113.055 100.952 80.0153 97.4449 74.3386C93.9377 68.662 77.9202 57.316 75.4181 56.4844C74.4346 56.1589 69.8066 67.194 64.5421 66.7601C56.3924 66.0949 46.724 53.9823 46.724 53.9823Z" fill="#00F863" stroke="black" stroke-width="1.44628" stroke-linecap="round" stroke-linejoin="round"/>
<path d="M29.3687 139.421C29.3687 139.421 33.0422 119.73 32.8759 106.048C32.7095 92.3665 30.3738 80.0153 30.3738 80.0153" stroke="black" stroke-width="1.44628" stroke-linecap="round" stroke-linejoin="round"/>
<path d="M93.9449 81.353L96.2807 114.726" stroke="black" stroke-width="1.44628" stroke-linecap="round" stroke-linejoin="round"/>
<path d="M74.008 35.7664C75.8086 35.6073 77.5007 34.5371 77.5007 34.5371L75.2301 26.2065C75.2301 26.2065 75.7941 21.3543 81.3406 21.1663" stroke="black" stroke-width="1.44628" stroke-linecap="round" stroke-linejoin="round"/>
<path d="M77.32 39.9461L69.7632 38.6228C69.7632 38.6228 69.6692 42.2891 72.3448 42.9182C75.0132 43.5546 77.32 39.9461 77.32 39.9461Z" stroke="black" stroke-width="1.44628" stroke-linecap="round" stroke-linejoin="round"/>
<path d="M53.3913 37.7406L52.256 49.2602" stroke="black" stroke-width="1.44628" stroke-linecap="round" stroke-linejoin="round"/>
<path d="M51.6052 38.3914C52.6899 39.0495 54.0928 38.4855 54.4471 37.2634C54.6857 36.4173 54.8376 35.5278 54.5845 35.0795C54.0204 34.0816 51.88 32.9462 52.2632 30.7623C52.6465 28.5785 54.476 26.438 55.4884 29.0847C56.5008 31.7313 56.9853 32.2231 58.2797 31.377C59.5741 30.5309 57.007 20.2262 59.4006 18.0496C61.7942 15.8729 66.1475 18.5992 68.6857 18.6932C71.2239 18.7872 74.4129 20.7252 78.6433 16.4731C82.8736 12.2139 82.7652 11.2015 83.2858 8.12813C83.8137 5.0548 83.7414 2.54551 83.7414 2.54551C83.7414 2.54551 77.8695 3.46389 72.1784 1.30171C66.4873 -0.853243 54.8448 -0.817081 49.5225 5.1705C44.2002 11.1581 43.9182 12.9225 44.6052 18.093C45.2849 23.2562 45.4802 24.0878 45.3283 25.9462C45.1765 27.8047 46.2395 32.8161 48.257 35.3326C49.5008 36.8873 50.6723 37.8274 51.6052 38.3914Z" fill="black"/>
<path d="M82.2518 10.5362C82.2518 10.5362 85.1371 13.0454 85.6144 19.0475C86.0917 25.0495 83.0256 34.9999 81.5793 32.2664C81.4274 31.97 82.0782 15.6849 80.2632 13.0527C78.4409 10.4277 82.2518 10.5362 82.2518 10.5362Z" fill="black"/>
<path d="M81.9191 30.4874C81.9191 30.8418 80.1474 42.5132 76.6113 46.1723C71.6795 51.2632 66.8851 50.1495 64.3468 48.5297C60.4564 46.0566 57.3903 40.9802 57.3903 40.9802" stroke="black" stroke-width="1.44628" stroke-linecap="round" stroke-linejoin="round"/>
<path d="M77.7321 26.2933C77.7321 26.2933 79.5689 27.1249 81.7311 26.2933" stroke="black" stroke-width="1.44628" stroke-linecap="round" stroke-linejoin="round"/>
<path d="M66.6392 26.4596C66.6392 26.4596 68.476 27.2912 70.6382 26.4596" stroke="black" stroke-width="1.44628" stroke-linecap="round" stroke-linejoin="round"/>
<path d="M52.7839 44.7695L49.3273 45.9193L64.8025 66.1961L56.1248 78.0122L42.1176 56.3687L47.8666 44.2416L52.9864 42.0505L52.7839 44.7695Z" fill="#00F863" stroke="black" stroke-width="1.44628" stroke-linecap="round" stroke-linejoin="round"/>
<path d="M64.8024 66.1961C64.9254 65.8056 71.9543 54.3872 71.9543 54.3872L72.3014 49.3108L73.7621 48.6094L77.1247 57.8438L75.447 77.9254L64.8024 66.1961Z" fill="#00F863" stroke="black" stroke-width="1.44628" stroke-linecap="round" stroke-linejoin="round"/>
<path d="M64.8025 66.196L61.0494 71.352L63.2766 75.9801L66.8345 76.0669L69.1485 70.8531L64.8025 66.196Z" fill="white" stroke="black" stroke-width="1.44628" stroke-linecap="round" stroke-linejoin="round"/>
<path d="M66.8344 76.0669C66.8344 76.0669 67.9914 106.475 69.2352 119.809C70.479 133.144 74.977 153.153 74.977 153.153L68.7724 161.527L59.6247 152.994C59.6247 152.994 58.54 133.455 59.0028 116.396C59.4657 99.3375 63.2838 75.9801 63.2838 75.9801L66.8344 76.0669Z" fill="white" stroke="black" stroke-width="1.44628" stroke-linecap="round" stroke-linejoin="round"/>
<path d="M90.6763 123.628C90.6763 123.628 87.0606 122.022 86.1567 123.526C85.2528 125.031 86.1567 126.238 86.6556 126.94C87.1546 127.641 90.0689 129.246 90.0689 129.246L90.6763 123.628Z" fill="white" stroke="black" stroke-width="1.44628" stroke-linecap="round" stroke-linejoin="round"/>
<path d="M89.6712 111.783C89.5699 112.282 88.0658 136.883 88.0658 136.883L101.617 139.493L107.844 113.894L89.6712 111.783Z" fill="white" stroke="black" stroke-width="1.44628" stroke-linecap="round" stroke-linejoin="round"/>
<path d="M107.417 125.349C107.265 124.307 106.419 123.497 105.37 123.396C103.295 123.194 99.3033 122.904 98.7465 124.235C97.8788 126.31 100.07 127.279 100.07 127.279C100.07 127.279 95.1381 126.556 94.9717 128.632C94.8271 130.411 96.1721 131.77 96.1721 131.77C96.1721 131.77 93.4821 131.076 93.0265 132.985C92.6649 134.496 93.4531 135.436 93.4531 135.436C93.4531 135.436 92.0647 136.659 92.7372 138.127C93.4025 139.58 98.1825 140.636 101.133 140.874C104.083 141.113 106.448 138.394 106.925 136.977C107.395 135.559 107.164 133.079 107.164 133.079C107.164 133.079 108.111 132.016 108.343 130.006C108.574 127.995 107.619 126.715 107.619 126.715L107.417 125.349Z" fill="white" stroke="black" stroke-width="1.44628" stroke-linecap="round" stroke-linejoin="round"/>
<path d="M100.077 127.28L104.445 127.873" stroke="black" stroke-width="1.44628" stroke-linecap="round" stroke-linejoin="round"/>
<path d="M96.1721 131.77L103.027 132.24" stroke="black" stroke-width="1.44628" stroke-linecap="round" stroke-linejoin="round"/>
<path d="M93.5761 135.552L102.203 136.847" stroke="black" stroke-width="1.44628" stroke-linecap="round" stroke-linejoin="round"/>
<path d="M39.5722 228.996C39.5722 228.996 36.9255 224.317 36.3976 222.025" stroke="black" stroke-width="1.44628" stroke-linecap="round" stroke-linejoin="round"/>
<path d="M34.9802 229.705C34.9802 229.705 32.3336 225.026 31.8057 222.734" stroke="black" stroke-width="1.44628" stroke-linecap="round" stroke-linejoin="round"/>
</svg>
