<svg width="377" height="341" viewBox="0 0 377 341" fill="none" xmlns="http://www.w3.org/2000/svg">
<path d="M76.7334 222.953C90.9948 222.953 102.556 211.392 102.556 197.13C102.556 182.869 90.9948 171.308 76.7334 171.308C62.4721 171.308 50.9109 182.869 50.9109 197.13C50.9109 211.392 62.4721 222.953 76.7334 222.953Z" fill="#00F863" stroke="black" stroke-width="1.89523" stroke-linecap="round" stroke-linejoin="round"/>
<path d="M143.048 219.333C157.309 219.333 168.87 207.772 168.87 193.51C168.87 179.249 157.309 167.688 143.048 167.688C128.786 167.688 117.225 179.249 117.225 193.51C117.225 207.772 128.786 219.333 143.048 219.333Z" fill="#00F863" stroke="black" stroke-width="1.89523" stroke-linecap="round" stroke-linejoin="round"/>
<path d="M55.4217 303.734C55.9779 297.552 45.0997 291.521 31.1248 290.264C17.1498 289.006 5.36996 292.999 4.81382 299.181C4.25767 305.363 15.1358 311.394 29.1108 312.651C43.0858 313.908 54.8656 309.916 55.4217 303.734Z" fill="black"/>
<path d="M30.3666 233.13C30.5561 232.751 28.2629 225.881 34.1855 218.243C40.0986 210.605 54.038 197.244 63.9596 199.348C73.8811 201.451 74.8382 207.554 78.4676 215.381C82.0969 223.209 87.252 234.087 88.9672 244.397C90.6823 254.707 88.7776 272.077 76.9419 277.223C65.1062 282.368 63.012 289.248 56.8999 289.248C50.7877 289.248 41.0557 286.576 34.7635 276.654C28.4714 266.733 30.1676 233.519 30.3666 233.13Z" fill="white" stroke="black" stroke-width="1.89523" stroke-miterlimit="10" stroke-linecap="round" stroke-linejoin="round"/>
<path d="M43.9649 303.595C49.1294 296.364 47.49 278.009 50.1054 269.187C52.7209 260.365 67.4373 241.649 68.2807 237.499C69.4747 231.661 67.2004 229.055 67.2004 229.055C67.2004 229.055 71.3794 224.033 68.8209 220.707C67.4279 218.887 65.8074 219.086 65.8074 219.086C65.8074 219.086 68.0343 215.931 65.6558 214.14C62.7372 211.951 58.6909 213.875 58.6909 213.875C58.6909 213.875 58.0654 210.823 56.4829 210.681C52.0102 210.274 41.6811 216.784 35.1521 221.645C28.623 226.506 17.5359 236.504 14.0487 246.823C10.552 257.152 11.7933 292.337 14.0108 297.312C16.2377 302.278 20.284 307.508 29.0494 307.641C37.8244 307.783 41.4821 307.073 43.9649 303.595Z" fill="white" stroke="black" stroke-width="1.89523" stroke-miterlimit="10" stroke-linecap="round" stroke-linejoin="round"/>
<path d="M67.2099 229.065C67.2099 229.065 48.0396 252.888 46.8551 254.954" stroke="black" stroke-width="1.89523" stroke-miterlimit="10" stroke-linecap="round" stroke-linejoin="round"/>
<path d="M65.7506 218.935C65.7506 218.935 41.8422 246.094 40.6577 248.159" stroke="black" stroke-width="1.89523" stroke-miterlimit="10" stroke-linecap="round" stroke-linejoin="round"/>
<path d="M58.7003 213.884C58.7003 213.884 33.9486 237.982 31.2668 242.417" stroke="black" stroke-width="1.89523" stroke-miterlimit="10" stroke-linecap="round" stroke-linejoin="round"/>
<path d="M187.045 201.338C187.045 201.338 180.497 185.636 176.574 185.854C172.651 186.071 169.154 187.161 170.69 191.302C172.215 195.443 180.071 216.604 183.776 222.498C187.481 228.383 194.465 235.148 208.206 242.35C221.946 249.552 238.529 265.254 238.529 265.254C238.529 265.254 246.66 258.176 249.721 252.48C252.781 246.785 253.179 241.981 253.179 241.981C253.179 241.981 248.735 236.058 245.769 228.648C242.803 221.237 245.58 207.355 244.84 197.907C244.101 188.459 231.877 173.099 225.215 172.17C218.554 171.241 195.773 176.984 192.068 180.319C188.363 183.655 186.515 200.504 188.732 204.758C190.95 209.013 193.546 209.572 193.546 209.572C193.546 209.572 195.763 217.163 198.919 217.722C202.065 218.281 204.292 216.244 204.292 216.244C204.292 216.244 209.295 221.986 212.811 217.542C216.327 213.097 211.882 200.504 211.882 200.504L224.656 200.134" stroke="black" stroke-width="1.89523" stroke-miterlimit="10" stroke-linecap="round" stroke-linejoin="round"/>
<path d="M204.283 216.234C204.283 216.234 200.056 201.404 202.795 195.33C205.533 189.256 224.353 188.185 224.353 188.185" stroke="black" stroke-width="1.89523" stroke-miterlimit="10" stroke-linecap="round" stroke-linejoin="round"/>
<path d="M194.143 210.52C194.143 210.52 193.338 195.377 196.237 189.379C199.137 183.38 214.697 182.707 214.697 182.707" stroke="black" stroke-width="1.89523" stroke-miterlimit="10" stroke-linecap="round" stroke-linejoin="round"/>
<path d="M216.497 172.587C216.497 172.587 201.373 163.177 196.967 164.845C192.561 166.513 168.861 179.372 169.458 182.707C170.055 186.043 173.864 186.517 178.867 184.612C183.871 182.707 192.068 180.31 192.068 180.31" stroke="black" stroke-width="1.89523" stroke-miterlimit="10" stroke-linecap="round" stroke-linejoin="round"/>
<path d="M5.69069 298.023C5.69069 298.023 1 322.936 1 334.857" stroke="black" stroke-width="1.89523" stroke-miterlimit="10" stroke-linecap="round" stroke-linejoin="round"/>
<path d="M54.7961 302.486C54.7582 302.95 59.0983 332.128 59.4868 339.32" stroke="black" stroke-width="1.89523" stroke-miterlimit="10" stroke-linecap="round" stroke-linejoin="round"/>
<path d="M229.101 257.001C229.101 257.001 222.429 277.005 227.281 282.264C232.133 287.523 240.273 277.886 245.125 268.997C249.977 260.109 254.165 243.052 254.165 243.052C254.165 243.052 245.485 258.867 242.756 261.596C240.027 264.326 238.52 265.254 238.52 265.254L229.101 257.001Z" fill="black"/>
<path d="M253.17 241.971L313.514 280.454" stroke="black" stroke-width="1.89523" stroke-miterlimit="10" stroke-linecap="round" stroke-linejoin="round"/>
<path d="M59.7143 191.103C59.7143 191.103 64.3102 189.417 74.0327 187.948C83.7553 186.479 90.0948 187.948 90.0948 187.948" stroke="black" stroke-width="1.89523" stroke-miterlimit="10" stroke-linecap="round" stroke-linejoin="round"/>
<path d="M66.6792 189.075C66.6792 189.075 66.9067 200.835 76.2976 199.935C85.6884 199.035 83.8785 186.924 83.8785 186.924C83.8785 186.924 77.0935 187.038 74.0422 187.938C70.9814 188.848 66.6792 189.075 66.6792 189.075Z" fill="black"/>
<path d="M124.797 188.848C124.797 188.848 129.459 187.379 139.248 186.356C149.037 185.332 155.291 187.095 155.291 187.095" stroke="black" stroke-width="1.89523" stroke-miterlimit="10" stroke-linecap="round" stroke-linejoin="round"/>
<path d="M131.847 187.152C131.847 187.152 131.534 198.912 140.953 198.438C150.373 197.964 149.122 185.797 149.122 185.797C149.122 185.797 142.337 185.598 139.248 186.356C136.149 187.123 131.847 187.152 131.847 187.152Z" fill="black"/>
<path d="M99.7795 185.171C99.7795 185.171 101.713 181.011 109.218 180.869C116.258 180.727 118.504 184.423 118.504 184.423" stroke="black" stroke-width="1.89523" stroke-linecap="round" stroke-linejoin="round"/>
<path d="M69.5316 172.236C69.5316 172.236 107.616 143.296 113.804 142.927C119.983 142.557 120.608 149.73 120.608 149.73" stroke="black" stroke-width="1.89523" stroke-linecap="round" stroke-linejoin="round"/>
<path d="M207.751 167.081C207.751 167.081 245.835 138.141 252.023 137.772C258.211 137.402 258.827 144.575 258.827 144.575" stroke="black" stroke-width="1.89523" stroke-linecap="round" stroke-linejoin="round"/>
<path d="M149.662 104.652C149.662 104.652 149.491 114.299 147.331 121.785C145.17 129.271 143.502 132.266 143.502 132.266C143.502 132.266 150.155 135.09 156.646 134.597" stroke="black" stroke-width="1.89523" stroke-linecap="round" stroke-linejoin="round"/>
<path d="M147.331 151.398L173.447 142.244C173.447 142.244 175.939 155.217 166.795 159.045C157.641 162.874 147.331 151.398 147.331 151.398Z" stroke="black" stroke-width="1.89523" stroke-linecap="round" stroke-linejoin="round"/>
<path d="M207.789 161.301C207.789 161.301 218.336 153.293 219.89 135.914" stroke="black" stroke-width="1.89523" stroke-linecap="round" stroke-linejoin="round"/>
<path d="M119.215 83.7764C119.215 83.7764 128.35 129.584 138.888 167.47" stroke="black" stroke-width="1.89523" stroke-linecap="round" stroke-linejoin="round"/>
<path d="M231.166 129.461C231.166 129.461 244.803 170.464 243.381 176.339C241.96 182.215 238.927 182.821 238.927 182.821" stroke="black" stroke-width="1.89523" stroke-linecap="round" stroke-linejoin="round"/>
<path d="M244.698 164.504C245.978 164.077 376 191.226 376 333.227" stroke="black" stroke-width="1.89523" stroke-linecap="round" stroke-linejoin="round"/>
<path d="M237.904 130.731C234.426 133.716 229.101 132.541 227.13 128.4C225.774 125.547 224.713 122.458 225.357 120.705C226.788 116.829 233.725 111.513 231.072 103.961C228.418 96.4081 220.657 89.8695 218.62 99.8764C216.583 109.883 215.152 111.921 210.044 109.675C204.936 107.429 208.007 69.2494 198.199 62.9194C188.391 56.5893 174.518 68.842 165.535 70.6803C156.551 72.5187 146.345 81.2936 128.786 68.6429C111.227 55.9828 111.028 52.3061 107.351 41.6928C103.674 31.0795 102.452 22.0961 102.452 22.0961C102.452 22.0961 123.887 21.8876 142.877 10.8668C161.867 -0.153954 203.306 -6.89149 225.765 11.2743C248.223 29.4401 250.261 35.5712 250.877 54.3529C251.493 73.1346 251.284 76.1955 252.914 82.734C254.544 89.2631 253.71 107.713 248.015 117.853C244.49 124.135 240.889 128.172 237.904 130.731Z" fill="black"/>
<path d="M112.449 49.6622C112.449 49.6622 103.674 60.2755 105.503 81.919C107.341 103.563 124.124 137.146 127.639 126.571C128.018 125.434 116.088 67.8564 121.006 57.4421C125.924 47.0278 112.449 49.6622 112.449 49.6622Z" fill="black"/>
<path d="M226.968 280.719L257.738 334.392" stroke="black" stroke-width="1.89523" stroke-linecap="round" stroke-linejoin="round"/>
</svg>
