<svg width="415" height="361" viewBox="0 0 415 361" fill="none" xmlns="http://www.w3.org/2000/svg">
<path d="M143.209 200.515C143.209 200.515 143.68 210.155 146.843 219.795C150.007 229.435 152.849 234.02 151.899 238.126C150.949 242.231 149.528 246.502 149.371 249.658C149.214 252.821 150.007 256.927 151.106 257.555C152.213 258.191 159.991 259.672 169.017 259.529C178.044 259.387 200.787 259.081 200.787 259.081L207.652 259.679L205.865 256C205.865 256 208.452 256.097 208.849 256.598C209.245 257.091 210.045 257.794 210.045 257.794C210.045 257.794 208.953 253.12 207.757 252.223C206.56 251.325 203.576 250.331 203.576 250.331C203.576 250.331 200.592 246.95 198.109 247.048C195.627 247.145 189.06 247.145 185.478 246.053C181.896 244.961 167.873 243.166 167.873 243.166C167.873 243.166 176.429 234.715 182.098 229.936C187.766 225.158 194.826 216.213 197.018 208.353C199.209 200.493 202.193 185.379 202.193 185.379" fill="#00F863"/>
<path d="M143.209 200.515C143.209 200.515 143.68 210.155 146.843 219.795C150.007 229.435 152.849 234.02 151.899 238.126C150.949 242.231 149.528 246.502 149.371 249.658C149.214 252.821 150.007 256.927 151.106 257.555C152.213 258.191 159.991 259.672 169.017 259.529C178.044 259.387 200.787 259.081 200.787 259.081L207.652 259.679L205.865 256C205.865 256 208.452 256.097 208.849 256.598C209.245 257.091 210.045 257.794 210.045 257.794C210.045 257.794 208.953 253.12 207.757 252.223C206.56 251.325 203.576 250.331 203.576 250.331C203.576 250.331 200.592 246.95 198.109 247.048C195.627 247.145 189.06 247.145 185.478 246.053C181.896 244.961 167.873 243.166 167.873 243.166C167.873 243.166 176.429 234.715 182.098 229.936C187.766 225.158 194.826 216.213 197.018 208.353C199.209 200.493 202.193 185.379 202.193 185.379" stroke="black" stroke-width="1.49573" stroke-linecap="round" stroke-linejoin="round"/>
<path d="M79.8121 177.369C79.8121 177.369 72.7972 180.959 72.1391 183.083C71.4884 185.207 71.1594 190.591 75.0782 202.011C78.997 213.438 84.8677 226.167 85.3613 229.757C85.8549 233.347 85.3613 237.265 85.3613 237.265L88.3004 232.696C88.3004 232.696 89.2801 236.45 88.7865 238.41C88.2929 240.369 87.3207 241.349 87.3207 241.349C87.3207 241.349 91.8902 235.8 92.0547 232.86C92.2192 229.921 91.2395 227.476 91.2395 227.476L88.9511 197.12C88.9511 197.12 106.743 208.869 117.998 211.479C129.261 214.089 139.38 217.357 147.703 209.034C156.027 200.71 155.698 193.695 155.698 193.695L79.8121 177.369Z" fill="#00F863" stroke="black" stroke-width="1.49573" stroke-linecap="round" stroke-linejoin="round"/>
<path d="M239.863 104.594C239.863 104.594 246.205 109.62 249.824 108.378C253.444 107.144 256.413 101.132 256.413 101.132C256.413 101.132 254.88 98.3795 257.101 97.0632C259.322 95.747 260.863 96.8239 261.633 97.3474C262.845 98.1626 264.146 99.2395 264.064 101.79C263.981 104.34 261.76 103.846 261.349 103.682C260.938 103.517 259.621 107.384 257.729 110.435C255.837 113.479 254.027 116.366 250.153 117.188C246.287 118.011 240.11 117.929 236.647 112.985" fill="#00F863"/>
<path d="M239.863 104.594C239.863 104.594 246.205 109.62 249.824 108.378C253.444 107.144 256.413 101.132 256.413 101.132C256.413 101.132 254.88 98.3795 257.101 97.0632C259.322 95.747 260.863 96.8239 261.633 97.3474C262.845 98.1626 264.146 99.2395 264.064 101.79C263.981 104.34 261.76 103.846 261.349 103.682C260.938 103.517 259.621 107.384 257.729 110.435C255.837 113.479 254.027 116.366 250.153 117.188C246.287 118.011 240.11 117.929 236.647 112.985" stroke="black" stroke-width="1.49573" stroke-linecap="round" stroke-linejoin="round"/>
<path d="M241.314 14.9626C241.314 14.9626 242.301 11.8889 241.426 9.36113C240.551 6.83335 239.122 4.08868 239.122 4.08868C239.122 4.08868 236.153 10.4605 234.837 9.24895C233.521 8.03741 230.881 2.76496 230.881 2.76496C230.881 2.76496 230.335 8.03741 228.024 9.02459C225.721 10.0118 223.298 7.59617 221.435 6.05557C219.573 4.51497 216.051 1 216.051 1C216.051 1 220.441 14.4017 218.137 15.9349C215.834 17.468 211.653 15.8227 211.653 15.8227C211.653 15.8227 215.056 20.3248 212.199 21.8654C209.342 23.406 202.312 20.6539 202.312 20.6539C202.312 20.6539 208.46 25.156 208.355 29.1122C208.251 33.0684 206.052 34.9306 205.057 33.6144C204.07 32.2982 203.517 30.2116 203.517 30.2116C203.517 30.2116 201.542 32.4103 200.218 30.4285C198.902 28.4541 199.119 26.0385 199.119 26.0385C199.119 26.0385 198.132 30.2116 194.393 28.5663C190.653 26.921 188.133 23.2939 188.133 23.2939C188.133 23.2939 190.549 28.3494 189.561 30.9819C188.574 33.6144 186.592 35.155 186.592 35.155C186.592 35.155 188.238 35.7009 188.238 37.7875C188.238 39.874 187.692 39.2159 187.692 39.2159C187.692 39.2159 191.536 39.874 191.095 41.5193C190.653 43.1646 190.549 45.2512 186.592 45.0343C182.636 44.8174 182.202 40.6443 182.202 40.6443C182.202 40.6443 182.202 42.7309 177.7 42.4018C173.198 42.0727 170.341 41.4146 170.341 41.4146C170.341 41.4146 172.974 44.7127 170.67 46.029C168.367 47.3452 165.944 47.4574 165.944 47.4574C165.944 47.4574 169.676 50.4264 169.9 53.5001C170.117 56.5738 168.584 58.0023 168.584 58.0023C168.584 58.0023 172.316 59.6476 171.216 61.9585C170.117 64.2619 167.372 63.3869 167.372 63.3869C167.372 63.3869 168.688 65.5856 165.398 66.9019C162.1 68.2181 160.671 64.9275 160.671 64.9275C160.671 64.9275 158.802 67.7843 156.169 67.014C153.537 66.2437 151.996 63.6113 151.996 63.6113C151.996 63.6113 150.568 65.3687 148.04 63.7234C145.512 62.0781 144.413 60.6497 144.413 60.6497C144.413 60.6497 148.04 65.264 147.816 69.1081C147.599 72.9521 145.841 74.1636 145.841 74.1636C145.841 74.1636 147.382 76.138 147.382 78.6658C147.382 81.1936 145.295 82.5098 145.295 82.5098C145.295 82.5098 150.126 83.2801 150.785 86.3538C151.443 89.4276 150.239 91.0803 150.239 91.0803C150.239 91.0803 152.654 93.9372 150.68 96.1359C148.706 98.3346 146.178 95.8069 146.178 95.8069C146.178 95.8069 146.178 99.8678 143.321 99.8678C140.464 99.8678 137.39 98.3272 137.39 98.3272C137.39 98.3272 141.122 101.954 141.347 104.475C141.563 107.002 139.806 108.648 139.806 108.648C139.806 108.648 143.867 111.063 142.222 113.038C140.576 115.012 138.594 114.025 138.594 114.025C138.594 114.025 140.023 118.086 136.949 118.086C133.875 118.086 131.019 115.782 131.019 115.782C131.019 115.782 133.988 121.496 132.447 123.141C130.906 124.787 129.478 123.583 129.478 123.583C129.478 123.583 129.59 127.539 126.404 127.539C123.218 127.539 122.014 124.57 122.014 124.57C122.014 124.57 122.889 130.388 120.04 134.232C117.19 138.076 115.426 135.661 115.426 135.661L114.109 132.692C114.109 132.692 112.464 136.094 110.923 136.423C109.383 136.752 106.421 133.896 106.421 133.896C106.421 133.896 102.248 134.771 99.7204 133.238C97.1926 131.697 97.0879 127.965 97.0879 127.965C97.0879 127.965 92.6979 133.125 90.9404 131.48C89.1829 129.835 90.6114 121.818 90.6114 121.818C90.6114 121.818 87.6423 125.003 85.7802 124.674C83.9105 124.345 82.4821 123.575 82.4821 123.575C82.4821 123.575 83.5814 125.991 81.0536 125.445C78.5259 124.899 75.8934 121.601 75.7812 120.172C75.669 118.744 74.9062 116.657 74.9062 116.657C74.9062 116.657 72.9318 119.731 71.5034 117.645C70.075 115.558 70.4041 113.913 70.4041 113.913C70.4041 113.913 66.1188 114.354 63.9201 111.609C61.7213 108.865 60.4051 104.908 60.4051 104.908C60.4051 104.908 57.8773 106.554 54.9158 105.35C51.9467 104.138 51.1839 101.289 51.1839 101.289C51.1839 101.289 46.4574 101.072 43.4959 99.6434C40.5343 98.215 39.5397 96.7866 39.5397 96.7866C39.5397 96.7866 38.1112 97.5568 37.0119 96.5697C35.9125 95.5825 33.9382 95.6947 33.28 94.5953C32.6219 93.4959 31.3057 91.0803 31.3057 91.0803C31.3057 91.0803 30.8644 93.825 28.4488 93.4959C26.0332 93.1669 24.4926 92.3966 22.5182 92.6209C20.5439 92.8453 13.6187 95.2534 13.6187 95.2534C13.6187 95.2534 58.872 115.461 69.6412 124.689C80.403 133.918 103.475 147.866 123.577 144.897C143.68 141.928 158.727 124.248 168.172 108.977C177.618 93.7053 189.808 67.6796 198.925 57.5685C208.034 47.4723 241.314 14.9626 241.314 14.9626Z" fill="#00F863" stroke="black" stroke-width="1.49573" stroke-linecap="round" stroke-linejoin="round"/>
<path d="M276.254 62.0406C276.254 62.0406 289.184 70.7009 285.961 89.5247C282.895 107.421 295.152 121.204 295.152 121.204C295.152 121.204 294.838 108.58 296.14 105.985C297.441 103.39 300.754 111.153 305.196 119.948C309.639 128.735 309.332 143.199 314.829 158.074C320.326 172.949 337.459 171.378 343.996 182.013C350.435 192.476 355.767 193.627 355.767 193.627L352.663 183.494C352.663 183.494 360.441 181.34 375.735 197.127C391.029 212.915 391.051 221.74 399.607 229.218C405.971 234.79 410.63 236.667 414.826 238.268C417.189 239.165 394.656 221.037 398.65 201.316C401.611 186.695 394.828 161.724 385.898 156.78C376.969 151.844 369.887 141.03 374.336 136.453C378.786 131.876 379.175 125.721 373.372 118.452C367.561 111.183 345.312 106.957 342.365 99.1721C339.419 91.3868 350.868 96.1881 350.868 96.1881C350.868 96.1881 344.13 72.4135 322.285 69.0406C279.103 62.3772 244.866 40.6367 244.866 40.6367L252.472 48.4669L276.254 62.0406Z" fill="black"/>
<path d="M275.708 62.8782C275.708 62.8782 276.718 61.2554 276.815 59.8942C276.912 58.5331 276.62 57.5908 276.62 57.5908L272.724 60.3504L275.708 62.8782Z" fill="white" stroke="black" stroke-width="1.49573" stroke-miterlimit="10" stroke-linecap="round" stroke-linejoin="round"/>
<path d="M271.468 60.3805C271.468 60.3805 272.23 58.6305 272.133 57.2694C272.036 55.9083 271.61 55.0183 271.61 55.0183L268.147 58.3014L271.468 60.3805Z" fill="white" stroke="black" stroke-width="1.49573" stroke-miterlimit="10" stroke-linecap="round" stroke-linejoin="round"/>
<path d="M267.481 58.9818C267.481 58.9818 268.244 57.2318 268.147 55.8707C268.05 54.5096 267.624 53.6196 267.624 53.6196L264.161 56.9028L267.481 58.9818Z" fill="white" stroke="black" stroke-width="1.49573" stroke-miterlimit="10" stroke-linecap="round" stroke-linejoin="round"/>
<path d="M264.138 58.0396C264.138 58.0396 264.901 56.2896 264.804 54.9284C264.707 53.5673 264.281 52.6774 264.281 52.6774L260.818 55.9605L264.138 58.0396Z" fill="white" stroke="black" stroke-width="1.49573" stroke-miterlimit="10" stroke-linecap="round" stroke-linejoin="round"/>
<path d="M260.474 55.9979C260.474 55.9979 261.237 54.2479 261.139 52.8868C261.042 51.5257 260.616 50.6357 260.616 50.6357L257.153 53.9189L260.474 55.9979Z" fill="white" stroke="black" stroke-width="1.49573" stroke-miterlimit="10" stroke-linecap="round" stroke-linejoin="round"/>
<path d="M254.79 41.2649C254.79 41.2649 253.967 42.985 254.012 44.3536C254.065 45.7222 254.454 46.6196 254.454 46.6196L258.028 43.4561L254.79 41.2649Z" fill="white" stroke="black" stroke-width="1.49573" stroke-miterlimit="10" stroke-linecap="round" stroke-linejoin="round"/>
<path d="M258.298 43.015C258.298 43.015 257.475 44.7351 257.52 46.1037C257.572 47.4723 257.961 48.3697 257.961 48.3697L261.536 45.2063L258.298 43.015Z" fill="white" stroke="black" stroke-width="1.49573" stroke-miterlimit="10" stroke-linecap="round" stroke-linejoin="round"/>
<path d="M262.508 44.391C262.508 44.391 261.686 46.1111 261.73 47.4797C261.783 48.8483 262.172 49.7457 262.172 49.7457L265.746 46.5822L262.508 44.391Z" fill="white" stroke="black" stroke-width="1.49573" stroke-miterlimit="10" stroke-linecap="round" stroke-linejoin="round"/>
<path d="M266.345 46.3506C266.345 46.3506 265.522 48.0707 265.567 49.4393C265.619 50.8079 266.008 51.7053 266.008 51.7053L269.583 48.5418L266.345 46.3506Z" fill="white" stroke="black" stroke-width="1.49573" stroke-miterlimit="10" stroke-linecap="round" stroke-linejoin="round"/>
<path d="M270.428 48.0182C270.428 48.0182 269.605 49.7383 269.65 51.1069C269.703 52.4755 270.091 53.3729 270.091 53.3729L273.666 50.2094L270.428 48.0182Z" fill="white" stroke="black" stroke-width="1.49573" stroke-miterlimit="10" stroke-linecap="round" stroke-linejoin="round"/>
<path d="M274.265 49.8579C274.265 49.8579 273.442 51.578 273.487 52.9466C273.539 54.3152 273.928 55.2126 273.928 55.2126L277.503 52.0491L274.265 49.8579Z" fill="white" stroke="black" stroke-width="1.49573" stroke-miterlimit="10" stroke-linecap="round" stroke-linejoin="round"/>
<path d="M278.139 50.9799C278.139 50.9799 277.316 52.7 277.361 54.0685C277.413 55.4371 277.802 56.3346 277.802 56.3346L281.377 53.1711L278.139 50.9799Z" fill="white" stroke="black" stroke-width="1.49573" stroke-miterlimit="10" stroke-linecap="round" stroke-linejoin="round"/>
<path d="M284.548 226.429C284.548 226.429 286.455 226.04 289.177 226.721C291.899 227.401 293.178 226.825 294.038 226.302C295.616 225.337 296.229 223.28 294.928 220.259C293.821 217.679 287.734 216.909 287.734 216.909L287.951 217.911C287.951 217.911 282.319 216.52 277.585 219.511C272.859 222.503 272.784 230.011 272.784 230.011L274.242 229.802C274.242 229.802 273.898 234.184 275.633 236.203C277.368 238.223 277.787 238.29 277.787 238.29C277.787 238.29 276.882 234.745 278.064 234.05C279.245 233.354 280.494 234.259 280.494 234.259L281.347 233.496C283.03 231.993 284.106 229.929 284.383 227.693L284.548 226.429Z" fill="black"/>
<path d="M294.008 225.509C294.008 225.509 294.33 237.632 293.305 239.419C292.281 241.207 289.985 243.121 287.502 243.121C285.019 243.121 282.715 241.588 282.715 241.588" stroke="black" stroke-width="1.49573" stroke-miterlimit="10" stroke-linecap="round" stroke-linejoin="round"/>
<path d="M285.535 229.891C285.535 229.891 287.21 230.295 287.562 230.759" stroke="black" stroke-width="1.49573" stroke-miterlimit="10" stroke-linecap="round" stroke-linejoin="round"/>
<path d="M292.767 229.779C292.767 229.779 291.091 230.183 290.74 230.647" stroke="black" stroke-width="1.49573" stroke-miterlimit="10" stroke-linecap="round" stroke-linejoin="round"/>
<path d="M288.96 233.87C288.96 233.87 288.781 235.688 289.588 235.964" stroke="black" stroke-width="1.49573" stroke-miterlimit="10" stroke-linecap="round" stroke-linejoin="round"/>
<path d="M286.402 233.623C286.782 233.623 287.09 233.315 287.09 232.935C287.09 232.555 286.782 232.247 286.402 232.247C286.022 232.247 285.714 232.555 285.714 232.935C285.714 233.315 286.022 233.623 286.402 233.623Z" fill="black"/>
<path d="M291.189 233.623C291.569 233.623 291.877 233.315 291.877 232.935C291.877 232.555 291.569 232.247 291.189 232.247C290.809 232.247 290.501 232.555 290.501 232.935C290.501 233.315 290.809 233.623 291.189 233.623Z" fill="black"/>
<path d="M287.083 240.122C287.818 240.122 288.414 239.526 288.414 238.791C288.414 238.056 287.818 237.46 287.083 237.46C286.348 237.46 285.752 238.056 285.752 238.791C285.752 239.526 286.348 240.122 287.083 240.122Z" stroke="black" stroke-width="1.49573" stroke-miterlimit="10" stroke-linecap="round" stroke-linejoin="round"/>
<path d="M276.344 235.605C276.344 235.605 277.353 238.051 278.49 238.642C279.619 239.24 279.619 239.24 279.619 239.24L279.38 241.685C279.38 241.685 258.694 243.218 251.739 246.614C244.776 250.009 230.776 266.731 230.776 266.731L236.041 273.948C236.041 273.948 246.055 263.336 250.894 260.457C255.732 257.57 261.506 256.127 261.506 256.127L255.987 273.694L241.216 278.869C241.216 278.869 239.691 280.313 241.897 283.454C244.103 286.595 246.392 286.849 246.392 286.849C246.392 286.849 258.784 277.007 263.877 270.127C268.97 263.246 276.605 249.164 278.221 244.834" stroke="black" stroke-width="1.49573" stroke-miterlimit="10" stroke-linecap="round" stroke-linejoin="round"/>
<path d="M255.979 273.686L263.877 270.119" stroke="black" stroke-width="1.49573" stroke-miterlimit="10" stroke-linecap="round" stroke-linejoin="round"/>
<path d="M231.876 268.594C231.876 268.594 228.562 270.545 227.463 271.054C226.364 271.563 225.003 272.924 225.003 272.924C225.003 272.924 223.387 271.989 223.133 273.096C222.879 274.202 223.133 275.384 224.831 277.59C226.528 279.797 228.226 280.477 230.096 280.133C231.965 279.797 232.81 276.992 233.573 275.549C234.336 274.105 234.845 272.408 234.845 272.408" stroke="black" stroke-width="1.49573" stroke-miterlimit="10" stroke-linecap="round" stroke-linejoin="round"/>
<path d="M279.38 241.678C279.38 241.678 281.87 245.761 283.905 245.679C285.931 245.604 288.197 243.884 288.197 243.884C288.197 243.884 286.948 250.981 286.948 250.749C286.948 250.518 283.905 246.225 283.905 246.225L280.472 250.204L277.271 241.932" stroke="black" stroke-width="1.49573" stroke-miterlimit="10" stroke-linecap="round" stroke-linejoin="round"/>
<path d="M275.087 242.486L271.58 247.713L272.589 249.508L270.563 250.757L266.973 265.662" stroke="black" stroke-width="1.49573" stroke-miterlimit="10" stroke-linecap="round" stroke-linejoin="round"/>
<path d="M287.808 247.167C287.808 247.167 290.224 260.898 293.425 267.457C296.626 274.008 301.539 287.746 301.539 288.995C301.539 290.244 296.386 269.095 296.08 265.273C295.766 261.451 297.172 257.076 297.8 253.098C298.421 249.119 297.097 243.892 297.097 243.892L291.944 241.319" stroke="black" stroke-width="1.49573" stroke-miterlimit="10" stroke-linecap="round" stroke-linejoin="round"/>
<path d="M301.539 288.988C301.539 288.988 300.761 290.857 298.727 289.609C296.693 288.36 291.391 285.473 288.19 284.456C284.989 283.439 283.142 283.282 283.142 283.282" stroke="black" stroke-width="1.49573" stroke-miterlimit="10" stroke-linecap="round" stroke-linejoin="round"/>
<path d="M297.089 243.892C297.089 243.892 307.47 248.498 311.134 249.59C314.799 250.682 323.377 251.206 326.742 251.071C330.646 250.914 332.045 251.228 332.045 251.228L329.233 260.517C329.233 260.517 313.004 261.534 308.711 260.442C304.418 259.35 297.478 256.777 297.478 256.777" stroke="black" stroke-width="1.49573" stroke-miterlimit="10" stroke-linecap="round" stroke-linejoin="round"/>
<path d="M332.052 251.221C332.052 251.221 336.42 250.443 337.826 249.897C339.232 249.351 343.831 247.324 344.616 248.102" stroke="black" stroke-width="1.49573" stroke-miterlimit="10" stroke-linecap="round" stroke-linejoin="round"/>
<path d="M342.193 250.211C342.193 250.211 343.831 253.487 342.582 254.347C341.333 255.207 341.176 254.504 340.712 254.115C340.241 253.726 339.935 252.791 339.935 252.791L338.065 253.965" stroke="black" stroke-width="1.49573" stroke-miterlimit="10" stroke-linecap="round" stroke-linejoin="round"/>
<path d="M330.646 257.002C330.646 257.002 335.717 256.456 336.651 256.845C337.586 257.233 338.992 257.316 338.992 257.316" stroke="black" stroke-width="1.49573" stroke-miterlimit="10" stroke-linecap="round" stroke-linejoin="round"/>
<path d="M343.053 250.675C343.053 250.675 345.708 247.863 346.254 248.955C346.8 250.046 346.097 253.247 344.302 255.356C342.507 257.465 341.849 257.697 341.184 257.697C339.86 257.697 338.611 255.588 339.703 254.264" stroke="black" stroke-width="1.49573" stroke-miterlimit="10" stroke-linecap="round" stroke-linejoin="round"/>
<path d="M344.728 261.893C344.728 261.893 340.682 261.018 339.314 256.919" stroke="black" stroke-width="1.49573" stroke-miterlimit="10" stroke-linecap="round" stroke-linejoin="round"/>
<path d="M350.614 248.506C350.614 248.506 348.4 246.494 345.229 248.192" stroke="black" stroke-width="1.49573" stroke-miterlimit="10" stroke-linecap="round" stroke-linejoin="round"/>
<path d="M362.139 277.022C362.857 277.463 356.335 275.601 350.307 273.081C345.731 271.166 340.75 268.332 340.75 268.332C340.75 268.332 352.409 239.442 353.965 238.537C355.52 237.632 376.632 242.68 376.632 242.68L375.727 250.585L362.139 277.022Z" stroke="black" stroke-width="1.49573" stroke-miterlimit="10" stroke-linecap="round" stroke-linejoin="round"/>
<path d="M353.972 238.537C353.972 238.537 358.751 241.244 364.846 244.901C370.724 248.431 375.735 250.585 375.735 250.585" stroke="black" stroke-width="1.49573" stroke-miterlimit="10" stroke-linecap="round" stroke-linejoin="round"/>
<path d="M290.396 260.629C290.396 260.629 288.354 269.409 285.804 276.244C283.254 283.08 281.01 286.146 280.494 287.47C279.986 288.793 278.251 295.128 278.251 295.128" stroke="black" stroke-width="1.49573" stroke-miterlimit="10" stroke-linecap="round" stroke-linejoin="round"/>
<path d="M258.245 276.753C258.245 276.753 258.043 279.811 258.245 280.327C258.447 280.844 256.51 284.306 255.59 285.637C254.67 286.961 252.935 294.926 256.002 299.316C259.06 303.706 269.68 308.709 274.781 310.953C279.881 313.196 282.947 313.196 283.254 313.607C283.56 314.019 286.111 326.471 288.564 332.386C291.017 338.309 294.382 346.065 294.382 346.065L303.469 340.044C303.469 340.044 294.689 305.239 293.874 304.117C293.058 302.995 271.722 291.972 270.293 291.254" stroke="black" stroke-width="1.49573" stroke-miterlimit="10" stroke-linecap="round" stroke-linejoin="round"/>
<path d="M258.709 280.402C258.709 280.402 266.322 284.545 273.472 284.343C280.621 284.142 283.149 283.289 283.149 283.289" stroke="black" stroke-width="1.49573" stroke-miterlimit="10" stroke-linecap="round" stroke-linejoin="round"/>
<path d="M257.243 283.14C257.243 283.14 263.592 287.215 271.071 287.619C278.55 288.023 280.502 287.477 280.502 287.477" stroke="black" stroke-width="1.49573" stroke-miterlimit="10" stroke-linecap="round" stroke-linejoin="round"/>
<path d="M273.726 310.683C273.726 310.683 270.293 321.901 269.149 323.165C268.005 324.422 244.537 341.024 244.537 341.024C244.537 341.024 240.304 338.16 239.272 336.215C238.24 334.271 236.871 332.207 236.871 332.207C236.871 332.207 257.131 318.012 257.595 317.556C258.051 317.1 261.947 304.618 261.947 304.618" stroke="black" stroke-width="1.49573" stroke-miterlimit="10" stroke-linecap="round" stroke-linejoin="round"/>
<path d="M294.846 345.721L296.626 350.724" stroke="black" stroke-width="1.49573" stroke-miterlimit="10" stroke-linecap="round" stroke-linejoin="round"/>
<path d="M300.387 342.221L302.055 345.99" stroke="black" stroke-width="1.49573" stroke-miterlimit="10" stroke-linecap="round" stroke-linejoin="round"/>
<path d="M295.28 351.106C295.28 351.106 297.89 351.165 299.64 350.193C302.549 348.578 303.14 345.138 303.14 345.138C303.14 345.138 313.363 341.159 314.545 341.481C315.726 341.802 317.932 343.851 317.932 343.851L305.824 354.396L306.415 355.039L300.492 359.287C300.492 359.287 298.555 357.672 296.992 355.309C295.429 352.945 295.28 351.106 295.28 351.106Z" stroke="black" stroke-width="1.49573" stroke-miterlimit="10" stroke-linecap="round" stroke-linejoin="round"/>
<path d="M237.552 333.471L232.908 336.043" stroke="black" stroke-width="1.49573" stroke-miterlimit="10" stroke-linecap="round" stroke-linejoin="round"/>
<path d="M241.59 338.885L237.941 341.308" stroke="black" stroke-width="1.49573" stroke-miterlimit="10" stroke-linecap="round" stroke-linejoin="round"/>
<path d="M232.541 334.727C232.541 334.727 232.691 337.33 233.797 338.997C235.637 341.765 239.115 342.086 239.115 342.086C239.115 342.086 243.894 351.965 243.662 353.17C243.43 354.374 241.568 356.737 241.568 356.737L230.096 345.504L229.497 346.147L224.793 340.583C224.793 340.583 226.252 338.526 228.488 336.784C230.731 335.034 232.541 334.727 232.541 334.727Z" stroke="black" stroke-width="1.49573" stroke-miterlimit="10" stroke-linecap="round" stroke-linejoin="round"/>
<path d="M282.035 248.805L282.581 252.081L284.922 252.006L285.856 249.351L283.905 246.232L282.035 248.805Z" fill="#00F863" stroke="black" stroke-width="1.49573" stroke-linecap="round" stroke-linejoin="round"/>
<path d="M285.468 252.163C285.468 252.163 284.293 262.7 279.851 267.382C277.301 270.067 272.597 272.138 268.768 271.518C264.939 270.897 258.313 267.771 258.313 267.771C258.313 267.771 256.286 260.674 256.593 260.823C256.899 260.973 264.086 258.954 264.086 258.954C264.086 258.954 271.423 264.024 275.087 264.413C278.752 264.802 282.581 252.081 282.581 252.081L285.468 252.163Z" fill="#00F863" stroke="black" stroke-width="1.49573" stroke-linecap="round" stroke-linejoin="round"/>
<path d="M246.332 37.7351C246.332 37.7351 252.143 43.8526 259.591 45.7896C267.04 47.7266 283.762 55.5792 283.762 55.5792C283.762 55.5792 286.926 51.3986 285.595 47.3153C284.271 43.2319 280.39 38.2362 278.251 33.8537C276.112 29.4712 275.289 28.0428 275.289 28.0428C275.289 28.0428 278.654 22.6357 276.919 21.4167C275.184 20.1902 272.739 20.9081 272.021 19.6816C271.31 18.4551 271.206 15.8077 268.76 14.3793C266.315 12.9509 263.66 13.5641 262.231 12.6442C260.803 11.7244 258.051 9.17414 255.501 9.07692C252.95 8.9797 247.341 10.3034 244.589 12.2404C241.837 14.1774 237.754 16.1143 237.754 16.1143C237.754 16.1143 227.426 21.9851 224.188 24.0716C211.182 32.4402 190.99 59.999 186.929 66.6924C184.566 70.5888 179.944 80.6326 174.746 88.9115C169.548 97.1904 150.411 132.564 136.082 137.411C121.752 142.249 101.927 140.499 83.4393 129.184C64.9521 117.869 53.3078 108.079 44.9317 103.076C36.5556 98.0729 27.1999 94.3709 17.0887 95.1337C6.97758 95.8966 1.21155 103.181 1.21155 103.181C1.21155 103.181 18.2853 100.137 31.1261 114.167C43.967 128.197 56.0375 147.23 58.6476 153.325C61.2576 159.413 87.6573 192.566 115.096 201.151C153.148 213.057 177.379 212.242 196.33 206.409C215.28 200.575 223.455 183.659 227.022 172.642C230.582 161.626 240.139 112.065 240.626 105.746C241.112 99.4265 250.348 61.5247 250.348 61.5247C250.348 61.5247 266.487 68.4649 270.48 67.4553C274.474 66.4382 276.231 62.3847 276.231 62.3847C276.231 62.3847 274.743 59.2736 268.252 56.9702C261.76 54.6668 258.447 52.3035 253.033 48.3099C247.618 44.3163 245.457 42.6261 244.986 40.734C244.514 38.8494 246.332 37.7351 246.332 37.7351Z" fill="#00F863" stroke="black" stroke-width="1.49573" stroke-linecap="round" stroke-linejoin="round"/>
<path d="M241.194 21.3344C240.999 21.2671 236.886 13.0406 234.269 13.7585C231.651 14.4765 229.632 19.375 231.591 22.2468C233.551 25.1186 235.443 25.1186 235.443 25.1186" fill="#00F863"/>
<path d="M241.194 21.3344C240.999 21.2671 236.886 13.0406 234.269 13.7585C231.651 14.4765 229.632 19.375 231.591 22.2468C233.551 25.1186 235.443 25.1186 235.443 25.1186" stroke="black" stroke-width="1.49573" stroke-linecap="round" stroke-linejoin="round"/>
<path d="M184.162 74.545C184.162 74.545 177.214 68.0087 170.401 67.8666C163.588 67.732 158.144 72.9072 158.144 72.9072C158.144 72.9072 151.465 73.4531 150.927 75.2256C150.381 76.998 150.657 82.5846 155.01 83.669C159.37 84.7609 161.412 77.4019 161.412 77.4019C161.412 77.4019 168.195 72.81 172.009 75.263C175.823 77.716 181.432 84.4842 181.432 84.4842" fill="#00F863"/>
<path d="M184.162 74.545C184.162 74.545 177.214 68.0087 170.401 67.8666C163.588 67.732 158.144 72.9072 158.144 72.9072C158.144 72.9072 151.465 73.4531 150.927 75.2256C150.381 76.998 150.657 82.5846 155.01 83.669C159.37 84.7609 161.412 77.4019 161.412 77.4019C161.412 77.4019 168.195 72.81 172.009 75.263C175.823 77.716 181.432 84.4842 181.432 84.4842" stroke="black" stroke-width="1.49573" stroke-linecap="round" stroke-linejoin="round"/>
<path d="M150.8 77.7757C150.8 77.7757 153.417 77.0951 154.389 76.5193" stroke="black" stroke-width="1.49573" stroke-miterlimit="10" stroke-linecap="round" stroke-linejoin="round"/>
<path d="M152.108 80.4681C152.108 80.4681 154.726 79.7875 155.698 79.2117" stroke="black" stroke-width="1.49573" stroke-miterlimit="10" stroke-linecap="round" stroke-linejoin="round"/>
<path d="M153.604 82.3078C153.604 82.3078 156.222 81.6272 157.194 81.0514" stroke="black" stroke-width="1.49573" stroke-miterlimit="10" stroke-linecap="round" stroke-linejoin="round"/>
<path d="M250.355 61.5321C250.355 61.5321 238.487 55.0107 233.798 49.8505" stroke="black" stroke-width="1.49573" stroke-miterlimit="10" stroke-linecap="round" stroke-linejoin="round"/>
<path d="M255.815 25.1185C255.815 25.1185 257.378 22.9422 261.798 24.8493C266.218 26.7489 265.328 28.1773 265.328 28.1773C265.328 28.1773 262.613 28.8578 259.958 28.3792C257.303 27.9006 255.815 25.1185 255.815 25.1185Z" fill="white" stroke="black" stroke-width="1.49573" stroke-miterlimit="10" stroke-linecap="round" stroke-linejoin="round"/>
<path d="M261.042 24.6399L259.547 27.766" stroke="black" stroke-width="1.49573" stroke-miterlimit="10" stroke-linecap="round" stroke-linejoin="round"/>
<path d="M151.069 258.654V279.811H148.93V283.528H211.167V280.38C211.167 280.38 210.606 267.434 209.365 263.613C208.123 259.791 206.216 258.55 206.216 258.55L151.069 258.654Z" fill="white" stroke="black" stroke-width="1.49573" stroke-miterlimit="10" stroke-linecap="round" stroke-linejoin="round"/>
<path d="M162.13 285.331C163.497 285.331 164.605 284.222 164.605 282.855C164.605 281.488 163.497 280.38 162.13 280.38C160.763 280.38 159.654 281.488 159.654 282.855C159.654 284.222 160.763 285.331 162.13 285.331Z" fill="white" stroke="black" stroke-width="1.49573" stroke-miterlimit="10" stroke-linecap="round" stroke-linejoin="round"/>
<path d="M167.866 285.331C169.233 285.331 170.341 284.222 170.341 282.855C170.341 281.488 169.233 280.38 167.866 280.38C166.499 280.38 165.39 281.488 165.39 282.855C165.39 284.222 166.499 285.331 167.866 285.331Z" fill="white" stroke="black" stroke-width="1.49573" stroke-miterlimit="10" stroke-linecap="round" stroke-linejoin="round"/>
<path d="M183.638 285.331C185.005 285.331 186.114 284.222 186.114 282.855C186.114 281.488 185.005 280.38 183.638 280.38C182.271 280.38 181.163 281.488 181.163 282.855C181.163 284.222 182.271 285.331 183.638 285.331Z" fill="white" stroke="black" stroke-width="1.49573" stroke-miterlimit="10" stroke-linecap="round" stroke-linejoin="round"/>
<path d="M206.658 285.922C208.025 285.922 209.133 284.813 209.133 283.446C209.133 282.079 208.025 280.971 206.658 280.971C205.29 280.971 204.182 282.079 204.182 283.446C204.182 284.813 205.29 285.922 206.658 285.922Z" fill="white" stroke="black" stroke-width="1.49573" stroke-miterlimit="10" stroke-linecap="round" stroke-linejoin="round"/>
<path d="M200.622 285.922C201.989 285.922 203.098 284.813 203.098 283.446C203.098 282.079 201.989 280.971 200.622 280.971C199.255 280.971 198.147 282.079 198.147 283.446C198.147 284.813 199.255 285.922 200.622 285.922Z" fill="white" stroke="black" stroke-width="1.49573" stroke-miterlimit="10" stroke-linecap="round" stroke-linejoin="round"/>
<path d="M194.161 259.754H187.759V281.532H194.161V259.754Z" fill="white" stroke="black" stroke-width="1.49573" stroke-miterlimit="10" stroke-linecap="round" stroke-linejoin="round"/>
<path d="M196.404 260.15H206.366C206.366 260.15 208.019 261.534 208.744 264.241C209.469 266.948 209.402 268.003 209.402 268.003H196.075L196.404 260.15Z" fill="white" stroke="black" stroke-width="1.49573" stroke-miterlimit="10" stroke-linecap="round" stroke-linejoin="round"/>
<path d="M185.65 260.479H176.676V269.521H185.65V260.479Z" fill="white" stroke="black" stroke-width="1.49573" stroke-miterlimit="10" stroke-linecap="round" stroke-linejoin="round"/>
<path d="M172.069 260.479H166.654V269.521H172.069V260.479Z" fill="white" stroke="black" stroke-width="1.49573" stroke-miterlimit="10" stroke-linecap="round" stroke-linejoin="round"/>
<path d="M163.476 260.479H154.501V269.521H163.476V260.479Z" fill="white" stroke="black" stroke-width="1.49573" stroke-miterlimit="10" stroke-linecap="round" stroke-linejoin="round"/>
<path d="M175.913 284.254C175.913 284.254 172.667 269.349 175.554 257.144C178.441 244.938 181.103 243.271 181.103 243.271C181.103 243.271 175.741 253.479 176.04 265.243C176.339 277.007 179.914 284.097 179.914 284.097" stroke="black" stroke-width="1.49573" stroke-miterlimit="10" stroke-linecap="round" stroke-linejoin="round"/>
<path d="M181.103 243.271C181.103 243.271 178.441 235.725 181.402 234.169C184.364 232.614 182.292 242.014 182.292 242.014C182.292 242.014 185.179 235.65 188.357 237.355C191.536 239.06 182.883 243.42 182.883 243.42C182.883 243.42 183.249 244.677 186.36 244.086C189.464 243.495 191.094 242.68 191.094 242.68" stroke="black" stroke-width="1.49573" stroke-miterlimit="10" stroke-linecap="round" stroke-linejoin="round"/>
<path d="M69.9254 178.745L49.5984 184.623L49.0076 182.567L45.4403 183.599L62.7235 243.383L65.7523 242.508C65.7523 242.508 78.0323 238.372 81.3603 236.121C84.6957 233.87 85.3464 231.686 85.3464 231.686L69.9254 178.745Z" fill="white" stroke="black" stroke-width="1.49573" stroke-miterlimit="10" stroke-linecap="round" stroke-linejoin="round"/>
<path d="M49.7555 198.563C51.1226 198.563 52.2309 197.455 52.2309 196.088C52.2309 194.721 51.1226 193.613 49.7555 193.613C48.3883 193.613 47.28 194.721 47.28 196.088C47.28 197.455 48.3883 198.563 49.7555 198.563Z" fill="white" stroke="black" stroke-width="1.49573" stroke-miterlimit="10" stroke-linecap="round" stroke-linejoin="round"/>
<path d="M51.3484 204.075C52.7155 204.075 53.8238 202.967 53.8238 201.6C53.8238 200.233 52.7155 199.124 51.3484 199.124C49.9812 199.124 48.8729 200.233 48.8729 201.6C48.8729 202.967 49.9812 204.075 51.3484 204.075Z" fill="white" stroke="black" stroke-width="1.49573" stroke-miterlimit="10" stroke-linecap="round" stroke-linejoin="round"/>
<path d="M55.7309 219.227C57.098 219.227 58.2063 218.119 58.2063 216.752C58.2063 215.384 57.098 214.276 55.7309 214.276C54.3637 214.276 53.2554 215.384 53.2554 216.752C53.2554 218.119 54.3637 219.227 55.7309 219.227Z" fill="white" stroke="black" stroke-width="1.49573" stroke-miterlimit="10" stroke-linecap="round" stroke-linejoin="round"/>
<path d="M61.5493 241.506C62.9165 241.506 64.0248 240.398 64.0248 239.03C64.0248 237.663 62.9165 236.555 61.5493 236.555C60.1822 236.555 59.0739 237.663 59.0739 239.03C59.0739 240.398 60.1822 241.506 61.5493 241.506Z" fill="white" stroke="black" stroke-width="1.49573" stroke-miterlimit="10" stroke-linecap="round" stroke-linejoin="round"/>
<path d="M59.8741 235.71C61.2412 235.71 62.3495 234.601 62.3495 233.234C62.3495 231.867 61.2412 230.759 59.8741 230.759C58.5069 230.759 57.3986 231.867 57.3986 233.234C57.3986 234.601 58.5069 235.71 59.8741 235.71Z" fill="white" stroke="black" stroke-width="1.49573" stroke-miterlimit="10" stroke-linecap="round" stroke-linejoin="round"/>
<path d="M80.8294 220.468L79.051 214.318L58.1291 220.368L59.9075 226.518L80.8294 220.468Z" fill="white" stroke="black" stroke-width="1.49573" stroke-miterlimit="10" stroke-linecap="round" stroke-linejoin="round"/>
<path d="M81.0835 222.712L83.8506 232.285C83.8506 232.285 82.9756 234.251 80.5825 235.702C78.1893 237.153 77.1497 237.378 77.1497 237.378L73.4478 224.574L81.0835 222.712Z" fill="white" stroke="black" stroke-width="1.49573" stroke-miterlimit="10" stroke-linecap="round" stroke-linejoin="round"/>
<path d="M75.3041 203.856L66.6178 206.367L69.1109 214.989L77.7972 212.477L75.3041 203.856Z" fill="white" stroke="black" stroke-width="1.49573" stroke-miterlimit="10" stroke-linecap="round" stroke-linejoin="round"/>
<path d="M72.5217 194.227L63.8354 196.739L65.3396 201.941L74.0259 199.429L72.5217 194.227Z" fill="white" stroke="black" stroke-width="1.49573" stroke-miterlimit="10" stroke-linecap="round" stroke-linejoin="round"/>
<path d="M69.1476 182.555L60.4612 185.067L62.9543 193.688L71.6407 191.176L69.1476 182.555Z" fill="white" stroke="black" stroke-width="1.49573" stroke-miterlimit="10" stroke-linecap="round" stroke-linejoin="round"/>
<path d="M52.2383 209.722C52.2383 209.722 65.655 202.46 78.1818 201.839C90.7085 201.218 93.0493 203.32 93.0493 203.32C93.0493 203.32 81.7566 201.001 70.5386 204.554C59.3206 208.106 53.5022 213.513 53.5022 213.513" stroke="black" stroke-width="1.49573" stroke-miterlimit="10" stroke-linecap="round" stroke-linejoin="round"/>
<path d="M93.0494 203.32C93.0494 203.32 99.5558 198.668 101.874 201.076C104.185 203.484 94.59 204.105 94.59 204.105C94.59 204.105 101.5 205.107 100.752 208.637C100.005 212.167 93.4009 205.062 93.4009 205.062C93.4009 205.062 92.294 205.765 93.7299 208.585C95.1658 211.404 96.3923 212.743 96.3923 212.743" stroke="black" stroke-width="1.49573" stroke-miterlimit="10" stroke-linecap="round" stroke-linejoin="round"/>
<path d="M34.2672 192.7L36.3014 193.089L35.4264 194.248L35.8152 197.344L33.9755 199.573L37.4306 200.403L39.592 198.608L41.14 199.767L39.7939 199.947L37.5578 201.704L33.3922 201.413L31.9413 203.933C31.9413 203.933 30.9766 208.293 30.0043 208.293C29.0396 208.293 30.5877 204.711 30.5877 204.711C30.5877 204.711 29.3313 205.294 28.8451 205.002C28.359 204.711 28.8751 203.604 28.8751 203.604C28.8751 203.604 25.375 204.666 25.0684 204.135C24.6122 203.342 29.6229 202.101 29.6229 202.101L34.342 196.933L34.2672 192.7Z" fill="black"/>
<path d="M7.17203 201.547L9.03421 202.789L7.02245 205.578L8.92951 208.675L10.8889 208.465L11.8686 207.74C11.8686 207.74 15.0171 207.478 15.1218 207.792C15.2265 208.106 15.1742 208.719 14.3964 208.667C13.6186 208.615 12.1752 208.667 12.1752 208.667L11.3526 209.594L11.6592 210.058C11.6592 210.058 12.953 210.417 13.0054 210.985C13.0577 211.554 12.3323 211.86 11.9733 211.808C11.6143 211.756 11.1955 211.449 11.1955 211.449C11.1955 211.449 11.5545 212.429 12.5417 213.05C13.5214 213.67 13.469 214.134 13.3195 214.396C13.1699 214.657 12.5417 214.755 10.9413 213.573C9.34083 212.384 4.64424 208.667 4.64424 208.667L2.63249 208.203L1.49573 204.898L0 203.97L2.68484 203.664L3.76924 206.61L6.14745 207.231L5.16775 205.272L7.12715 202.998L7.17203 201.547Z" fill="black"/>
<path d="M280.457 107.907C280.457 107.907 279.417 118.108 283.77 123.358C292.191 133.522 293.111 142.862 293.111 142.862L288.855 139.609C288.855 139.609 290.852 141.808 292.236 149.533C293.619 157.259 293.006 162.202 292.729 166.622C292.453 171.042 297.822 176.06 295.915 186.269C295.908 186.306 295.9 186.351 295.893 186.396C295.653 187.712 293.806 187.824 293.44 186.538C291.907 181.176 289.304 174.976 285.153 172.478C279.185 168.888 276.321 160.063 276.052 157.304C275.775 154.544 273.853 156.885 273.846 161.439C273.838 163.646 276.605 168.335 276.605 168.335C276.605 168.335 270.368 164.498 268.536 158.829C266.816 153.512 266.12 143.498 269.71 135.227C273.3 126.948 272.47 125.018 272.47 125.018L267.781 127.225C267.781 127.225 271.116 118.235 271.393 112.447C271.669 106.651 274.997 94.341 276.418 88.6722C278.871 78.8677 274.676 69.5642 274.676 69.5642C274.676 69.5642 281.07 75.435 281.564 88.919C281.751 94.326 280.457 107.907 280.457 107.907Z" fill="black"/>
<path d="M235.951 359.923L30.9317 324.227" stroke="black" stroke-width="1.49573" stroke-miterlimit="10" stroke-linecap="round" stroke-linejoin="round"/>
<path d="M218.952 331.272L107.625 293.363" stroke="black" stroke-width="1.49573" stroke-miterlimit="10" stroke-linecap="round" stroke-linejoin="round"/>
<path d="M291.578 72.1071C291.578 72.1071 289.244 82.996 294.36 91.0505C298.278 97.2204 315.532 104.422 318.314 110.547C321.096 116.672 318.613 124.615 321.029 136.012C322.345 142.227 330.01 152.891 330.01 152.891C330.01 152.891 323.167 133.365 327.071 119.432C330.968 105.507 316.085 86.0323 316.085 86.0323L327.228 91.043C327.228 91.043 323.212 75.3827 315.532 77.1177C302.698 80.0195 291.578 72.1071 291.578 72.1071Z" fill="#00F863"/>
</svg>
