<svg width="403" height="276" viewBox="0 0 403 276" fill="none" xmlns="http://www.w3.org/2000/svg">
<path d="M207.162 222.195L137.847 243.004L153.671 251.653L214.043 261.034L276.032 236.124L275.888 233.336C275.888 233.329 207.306 223.071 207.162 222.195Z" fill="white" stroke="black" stroke-width="1.59272" stroke-miterlimit="10" stroke-linecap="round" stroke-linejoin="round"/>
<path d="M210.961 250.984L260.63 233.822L209.631 225.843L160.448 242.28L210.961 250.984Z" stroke="black" stroke-width="1.59272" stroke-miterlimit="10" stroke-linecap="round" stroke-linejoin="round"/>
<path d="M130.911 97.3737C130.536 92.9858 131.691 88.6296 134.271 85.062C137.831 80.1404 141.988 72.6945 141.383 65.3918C140.913 59.7217 135.944 51.575 137.122 46.9083C138.301 42.2416 142.856 32.3747 135.601 25.4543C129.549 19.6807 125.201 20.1904 118.814 16.9333C113.375 14.1619 104.065 8.02196 92.8367 12.7364C82.8901 16.9173 82.3964 24.642 76.7183 28.2575C71.0482 31.865 64.6137 34.5328 62.352 47.6569C60.0425 61.0676 66.947 66.5625 59.5886 73.5147C52.2302 80.467 33.8661 72.9174 29.9799 95.351C27.0095 112.497 38.8991 115.77 42.9845 119.361C47.0698 122.953 104.448 132.334 114.323 126.361C129.748 117.028 131.54 104.788 130.911 97.3737Z" fill="black"/>
<path d="M86.3941 69.3179L72.1552 92.8345L92.3907 134.994L113.224 89.1871L86.3941 69.3179Z" fill="white" stroke="black" stroke-width="1.59272" stroke-miterlimit="10" stroke-linecap="round" stroke-linejoin="round"/>
<path d="M134.94 48.6762C134.94 48.6762 132.655 75.872 122.78 87.8731C114.06 98.4648 106.709 97.3578 98.9129 88.9164C92.5181 81.996 85.9243 70.8868 85.9243 70.8868C85.9243 70.8868 78.2951 67.2633 80.732 61.195C83.1609 55.1268 89.4601 59.6023 89.4601 59.6023C89.4601 59.6023 96.1018 60.4465 96.1814 49.5363C96.2451 41.501 103.213 30.7342 119.738 33.7763C136.254 36.8264 134.94 48.6762 134.94 48.6762Z" fill="white" stroke="black" stroke-width="1.59272" stroke-miterlimit="10" stroke-linecap="round" stroke-linejoin="round"/>
<path d="M123.178 78.1655C123.178 78.1655 119.937 78.2849 116.489 76.6922C113.04 75.0995 110.508 73.2121 110.508 73.2121C110.508 73.2121 109.043 79.6786 113.447 82.1871C118.886 85.285 123.178 78.1655 123.178 78.1655Z" stroke="black" stroke-width="1.59272" stroke-miterlimit="10" stroke-linecap="round" stroke-linejoin="round"/>
<path d="M123.855 54.3941C123.895 54.6649 122.629 61.3384 124.508 66.8731C124.938 68.1473 124.373 69.8117 122.437 69.9311C119.69 70.0983 118.663 68.5295 118.663 68.5295" stroke="black" stroke-width="1.59272" stroke-miterlimit="10" stroke-linecap="round" stroke-linejoin="round"/>
<path d="M107.084 114.957L96.6831 142.018C96.6831 142.018 80.501 126.664 72.4578 113.42C64.4145 100.185 53.6 93.4795 53.6 93.4795C53.6 93.4795 29.9401 105.513 19.5555 124.203C9.17096 142.894 9.36209 162.707 5.34842 181.772C2.54523 195.103 1.62942 217.083 1.25513 224.855C0.673784 236.936 1.84444 250.004 2.51338 255.531C3.11065 260.484 6.56686 266.441 9.54525 268.759C12.5316 271.076 31.6761 274.62 34.1608 274.285C36.6454 273.951 49.3713 264.912 49.9048 260.723C51.2507 250.156 35.0049 242.104 41.4714 239.62C47.9378 237.135 53.7353 236.841 53.7353 236.841C53.7353 236.841 84.0767 242.296 97.0335 238.919C109.99 235.542 98.8253 231.815 98.8253 231.815L119.371 188.485C119.371 188.485 141.486 206.475 143.175 209.286C144.863 212.098 147.674 217.537 149.546 217.911C151.417 218.285 153.296 221.096 156.482 222.219C159.667 223.342 162.104 219.782 162.104 219.782C162.104 219.782 160.233 205.161 167.352 199.165C174.472 193.168 187.261 195.055 187.261 195.055C187.261 195.055 187.261 191.822 184.912 190.357C182.563 188.892 171.39 186.343 170.124 186.144C168.849 185.945 168.65 184.774 167.185 183.11C165.72 181.446 161.212 178.993 158.568 177.528C155.924 176.054 155.534 176.843 154.555 176.054C153.575 175.274 150.931 169.293 146.623 164.985C142.315 160.677 136.334 152.442 131.142 143.435C125.949 134.42 123.6 132.27 121.641 130.208C119.682 128.153 112.73 119.433 110.667 117.474C108.597 115.507 107.084 114.957 107.084 114.957Z" fill="#00F863" stroke="black" stroke-width="1.59272" stroke-linecap="round" stroke-linejoin="round"/>
<path d="M55.8616 232.572C55.8616 232.572 48.8616 223.621 33.1892 223.247C23.8559 223.024 14.5623 227.212 14.5623 227.212" stroke="black" stroke-width="1.59272" stroke-miterlimit="10" stroke-linecap="round" stroke-linejoin="round"/>
<path d="M163.904 240.91C163.904 240.91 177.976 250.522 181.846 250.291C185.716 250.06 186.656 248.412 186.656 247.121C186.656 245.831 170.243 232.468 168.602 231.648C166.962 230.828 145.739 224.967 143.509 224.967C141.279 224.967 107.283 226.257 101.772 226.846C96.2611 227.435 57.9242 232.707 55.8138 232.707C53.7035 232.707 46.3849 230.939 39.8229 234.324C35.65 236.474 30.3542 245.664 27.5589 255.802C26.444 259.839 26.4998 261.544 28.3792 264.944C30.2586 268.345 31.7797 269.866 31.7797 269.866C31.7797 269.866 49.7456 266.64 57.9799 264.53C68.5078 261.838 98.3395 249.319 101.501 249.67C104.671 250.02 107.92 253.556 115.844 253.684C121.386 253.771 132.607 257.554 135.776 256.965C138.946 256.375 145.627 254.623 145.627 254.623C145.627 254.623 148.908 256.503 153.018 255.563C157.119 254.623 158.059 249.933 158.059 249.933C158.059 249.933 163.569 257.673 166.381 258.024C169.192 258.374 171.422 255.913 170.832 253.453C170.235 250.992 163.904 240.91 163.904 240.91Z" fill="white" stroke="black" stroke-width="1.59272" stroke-miterlimit="10" stroke-linecap="round" stroke-linejoin="round"/>
<path d="M163.904 240.91C163.904 240.321 157.223 232.819 155.343 231.768C153.464 230.709 138.691 229.188 138.691 229.188" stroke="black" stroke-width="1.59272" stroke-miterlimit="10" stroke-linecap="round" stroke-linejoin="round"/>
<path d="M158.043 249.941C158.043 249.941 153.703 244.549 147.961 241.619C142.219 238.688 134.359 236.928 134.359 236.928" stroke="black" stroke-width="1.59272" stroke-miterlimit="10" stroke-linecap="round" stroke-linejoin="round"/>
<path d="M145.612 254.631C145.612 254.631 135.179 248.3 132.01 247.01C128.84 245.72 126.268 244.31 126.268 244.31" stroke="black" stroke-width="1.59272" stroke-miterlimit="10" stroke-linecap="round" stroke-linejoin="round"/>
<path d="M119.371 188.477C119.371 188.477 120.916 180.14 121.458 171.77C121.999 163.4 121.458 155.978 121.458 155.978" stroke="black" stroke-width="1.59272" stroke-miterlimit="10" stroke-linecap="round" stroke-linejoin="round"/>
<path d="M186.935 194.522C186.935 194.522 199.899 201.896 203.061 203.115C206.223 204.333 207.441 204.086 208.898 202.708C210.356 201.331 218.303 198.981 219.84 198.575C221.377 198.169 224.786 197.763 225.996 198.902C227.215 200.033 228.752 203.115 228.752 203.115C228.752 203.115 230.774 202.629 231.993 205.384C233.211 208.14 234.183 212.432 234.262 213.897C234.342 215.355 232.805 219.169 232.805 219.169C232.805 219.169 232.479 223.223 231.101 225.572C229.723 227.921 226.888 229.705 225.67 229.864C224.451 230.024 212.052 229.379 211.407 228.487C210.762 227.595 210.515 225.484 210.515 225.484C210.515 225.484 207.68 224.919 206.947 224.186C206.215 223.454 204.598 222.729 204.598 222.729L161.403 218.03C161.403 218.03 156.625 207.574 163.593 199.467C170.562 191.36 186.935 194.522 186.935 194.522Z" fill="white" stroke="black" stroke-width="1.59272" stroke-miterlimit="10" stroke-linecap="round" stroke-linejoin="round"/>
<path d="M216.997 227.754C216.997 227.754 220.724 227.674 224.531 225.325C228.338 222.976 232.797 219.169 232.797 219.169" stroke="black" stroke-width="1.59272" stroke-miterlimit="10" stroke-linecap="round" stroke-linejoin="round"/>
<path d="M247.45 215.052C247.45 215.052 249.107 215.498 250.548 215.713C251.989 215.936 252.428 216.159 253.423 215.267C254.418 214.375 257.19 210.505 257.628 209.286C258.074 208.068 257.078 203.306 255.748 203.091C254.418 202.868 252.539 202.095 252.539 202.095C252.539 202.095 250.214 199.881 248.772 199.77C247.331 199.658 245.674 199.77 245.674 199.77C245.674 199.77 243.572 197.222 241.47 197.222C239.367 197.222 237.814 197.883 237.814 197.883C237.814 197.883 235.935 195.892 233.609 196.553C231.284 197.214 227.963 200.646 227.963 200.646" stroke="black" stroke-width="1.59272" stroke-miterlimit="10" stroke-linecap="round" stroke-linejoin="round"/>
<path d="M249.664 206.419C249.664 206.419 246.901 217.043 245.571 217.266C244.241 217.489 240.482 215.936 240.482 215.936" stroke="black" stroke-width="1.59272" stroke-miterlimit="10" stroke-linecap="round" stroke-linejoin="round"/>
<path d="M243.134 202.987C243.134 202.987 241.478 205.09 241.366 207.192C241.255 209.294 240.148 216.708 238.818 217.043C237.488 217.377 234.39 216.708 234.39 216.708" stroke="black" stroke-width="1.59272" stroke-miterlimit="10" stroke-linecap="round" stroke-linejoin="round"/>
<path d="M235.943 200.439C235.943 200.439 233.283 204.644 233.394 207.853" stroke="black" stroke-width="1.59272" stroke-miterlimit="10" stroke-linecap="round" stroke-linejoin="round"/>
<path d="M256.68 203.919C256.68 203.919 264.349 201.243 267.972 201.681C271.596 202.111 276.159 202.454 277.887 202.454C279.615 202.454 283.143 204.524 285.556 204.612C287.969 204.699 287.969 204.699 287.969 204.699C287.969 204.699 290.295 207.375 293.138 207.455C295.981 207.542 298.306 205.647 298.306 205.647C298.306 205.647 302.184 205.735 303.912 204.437C305.632 203.146 305.29 200.383 305.29 200.383C305.29 200.383 308.563 199.26 309.343 197.97C310.116 196.68 309.774 194.004 309.774 194.004C309.774 194.004 311.064 188.748 310.379 187.538C309.686 186.327 299.692 180.036 296.849 179.956C294.006 179.869 282.968 182.712 276.852 183.492C270.736 184.265 259.786 185.475 250.134 186.765C240.482 188.055 214.624 188.836 207.903 188.748C201.182 188.661 197.041 187.283 197.041 187.283" stroke="black" stroke-width="1.59272" stroke-miterlimit="10" stroke-linecap="round" stroke-linejoin="round"/>
<path d="M300.488 186.16C300.329 185.77 309.224 192.22 309.622 193.479" stroke="black" stroke-width="1.59272" stroke-miterlimit="10" stroke-linecap="round" stroke-linejoin="round"/>
<path d="M297.382 192.053C297.279 191.639 305.25 199.204 305.473 200.51" stroke="black" stroke-width="1.59272" stroke-miterlimit="10" stroke-linecap="round" stroke-linejoin="round"/>
<path d="M293.87 198.289C293.767 197.875 298.712 204.006 298.943 205.312" stroke="black" stroke-width="1.59272" stroke-miterlimit="10" stroke-linecap="round" stroke-linejoin="round"/>
<path d="M203.762 187.816C203.762 187.816 207.266 182.218 210.061 173.816C212.864 165.415 215.102 155.198 215.102 155.198" stroke="black" stroke-width="1.59272" stroke-miterlimit="10" stroke-linecap="round" stroke-linejoin="round"/>
<path d="M160.225 108.244C160.225 108.244 161.961 116.439 168.419 125.995C174.878 135.551 176.614 138.036 176.861 141.014C177.108 143.993 176.486 145.482 177.235 146.597C177.984 147.712 178.852 155.038 178.852 158.264C178.852 161.489 178.605 165.71 178.605 165.71" stroke="black" stroke-width="1.59272" stroke-miterlimit="10" stroke-linecap="round" stroke-linejoin="round"/>
<path d="M160.965 142.75C160.965 142.75 168.913 153.175 170.402 156.153C171.891 159.132 175.491 163.225 182.196 168.815C188.902 174.398 189.268 175.887 190.885 177.75C192.501 179.614 195.48 181.477 196.467 182.967C197.455 184.456 198.705 185.571 198.705 185.571C198.705 185.571 195.233 188.302 193.863 189.919C192.501 191.535 189.021 195.876 189.021 195.876" stroke="black" stroke-width="1.59272" stroke-miterlimit="10" stroke-linecap="round" stroke-linejoin="round"/>
<path d="M188.886 129.467C188.886 129.467 179.959 155.484 179.513 161.194" stroke="black" stroke-width="1.59272" stroke-miterlimit="10" stroke-linecap="round" stroke-linejoin="round"/>
<path d="M161.451 106.277C161.451 106.277 155.885 112.035 155.208 114.273C154.531 116.51 153.416 119.648 153.304 120.54C153.193 121.432 157.111 125.804 161.483 131.068C165.847 136.332 168.539 142.488 169.096 143.722C169.654 144.956 170.665 141.484 172.457 140.584C174.249 139.692 176.853 141.014 176.853 141.014" stroke="black" stroke-width="1.59272" stroke-miterlimit="10" stroke-linecap="round" stroke-linejoin="round"/>
<path d="M157.788 109.391C157.788 109.391 148.494 110.466 146.137 113.596C143.78 116.725 141.431 118.071 138.747 119.305C136.063 120.54 126.427 130.614 126.427 134.651" stroke="black" stroke-width="1.59272" stroke-miterlimit="10" stroke-linecap="round" stroke-linejoin="round"/>
<path d="M197.654 117.522C197.654 117.522 206.501 120.882 211.208 122.786C215.914 124.689 220.613 130.176 224.308 136.563C228.003 142.95 231.364 148.659 233.602 152.132C235.839 155.604 236.739 157.396 238.42 160.979C240.1 164.563 242.561 165.909 244.806 167.135C247.044 168.369 248.167 170.83 250.516 175.425C252.866 180.02 258.241 185.73 258.241 185.73" stroke="black" stroke-width="1.59272" stroke-miterlimit="10" stroke-linecap="round" stroke-linejoin="round"/>
<path d="M209.416 175.863C209.416 175.863 210.873 179.112 214.68 182.13C218.487 185.149 221.847 188.74 221.847 188.74" stroke="black" stroke-width="1.59272" stroke-miterlimit="10" stroke-linecap="round" stroke-linejoin="round"/>
<path d="M193.704 122.332C193.704 122.332 196.826 136.379 195.304 138.402C193.783 140.425 189.611 141.317 188.217 145.745C186.823 150.172 178.876 165.192 178.876 165.192" stroke="black" stroke-width="1.59272" stroke-miterlimit="10" stroke-linecap="round" stroke-linejoin="round"/>
<path d="M157.079 90.1746C157.079 90.1746 160.328 95.0483 163.004 94.7616C165.68 94.475 167.4 89.219 168.069 86.0733C168.738 82.9197 168.069 76.9072 179.433 78.2371C190.797 79.5671 196.443 79.8617 200.274 77.3373C204.797 74.3509 203.802 68.5693 202.647 64.8662C201.564 61.3782 195.48 53.5977 195.193 53.7888C194.906 53.98 191.848 58.567 187.357 59.4271C182.865 60.2872 164.238 60.5738 159.755 66.2121C155.263 71.8503 156.028 77.4806 156.315 81.112C156.601 84.7275 157.079 90.1746 157.079 90.1746Z" fill="black"/>
<path d="M174.289 92.1178C174.289 92.1178 183.168 92.1974 191.259 91.2497C199.35 90.3021 206.581 88.0324 206.581 88.0324C206.581 88.0324 206.342 96.7526 203.674 98.64C201.006 100.527 197.391 100.209 195.273 99.1895C193.154 98.1701 191.506 92.6673 189.929 92.6673C188.352 92.6673 189.77 96.2031 186.234 99.5C182.698 102.797 178.788 103.139 176.335 101.149C172.56 98.0905 174.289 92.1178 174.289 92.1178Z" stroke="black" stroke-width="1.59272" stroke-miterlimit="10" stroke-linecap="round" stroke-linejoin="round"/>
<path d="M174.289 92.1178L160.225 89.1314" stroke="black" stroke-width="1.59272" stroke-miterlimit="10" stroke-linecap="round" stroke-linejoin="round"/>
<path d="M181.36 97.2224C182.055 97.2224 182.618 96.6591 182.618 95.9642C182.618 95.2693 182.055 94.7059 181.36 94.7059C180.665 94.7059 180.102 95.2693 180.102 95.9642C180.102 96.6591 180.665 97.2224 181.36 97.2224Z" stroke="black" stroke-width="1.59272" stroke-miterlimit="10" stroke-linecap="round" stroke-linejoin="round"/>
<path d="M198.641 95.1837C199.336 95.1837 199.899 94.6204 199.899 93.9254C199.899 93.2305 199.336 92.6672 198.641 92.6672C197.946 92.6672 197.383 93.2305 197.383 93.9254C197.383 94.6204 197.946 95.1837 198.641 95.1837Z" stroke="black" stroke-width="1.59272" stroke-miterlimit="10" stroke-linecap="round" stroke-linejoin="round"/>
<path d="M176.096 89.9198L183.399 89.211" stroke="black" stroke-width="1.59272" stroke-miterlimit="10" stroke-linecap="round" stroke-linejoin="round"/>
<path d="M192.907 88.9721C192.907 88.9721 195.265 86.6149 198.641 87.6342" stroke="black" stroke-width="1.59272" stroke-miterlimit="10" stroke-linecap="round" stroke-linejoin="round"/>
<path d="M191.331 97.7719C191.331 97.7719 191.57 100.989 192.43 102.877C193.298 104.764 193.919 106.022 193.919 106.022C193.919 106.022 192.501 107.042 189.993 106.89" stroke="black" stroke-width="1.59272" stroke-miterlimit="10" stroke-linecap="round" stroke-linejoin="round"/>
<path d="M182.69 112.226C182.69 112.226 184.657 112.616 187.636 112.305C190.622 111.995 192.82 110.577 192.82 110.577C192.82 110.577 193.608 114.583 190.072 115.523C186.545 116.47 182.69 112.226 182.69 112.226Z" stroke="black" stroke-width="1.59272" stroke-miterlimit="10" stroke-linecap="round" stroke-linejoin="round"/>
<path d="M200.521 73.7616C200.521 73.7616 202.312 98.632 201.365 105.481C200.417 112.329 196.411 122.762 189.037 124.243C181.663 125.716 175.762 122.029 171.86 117.076" stroke="black" stroke-width="1.59272" stroke-miterlimit="10" stroke-linecap="round" stroke-linejoin="round"/>
<path d="M158.783 90.31C158.783 90.31 155.518 89.3624 155.096 92.1018C154.674 94.8413 156.466 102.327 158.576 103.171C160.687 104.015 161.738 103.171 161.738 103.171L162.582 114.87" stroke="black" stroke-width="1.59272" stroke-miterlimit="10" stroke-linecap="round" stroke-linejoin="round"/>
<path d="M190.088 124.354L188.297 138.896" stroke="black" stroke-width="1.59272" stroke-miterlimit="10" stroke-linecap="round" stroke-linejoin="round"/>
<path d="M96.6831 142.018C96.6831 142.018 95.5523 134.365 95.3293 130.104C95.1063 125.844 95.1939 126.313 95.1939 126.313L74.377 90.2304L78.1836 84.6319L66.3338 82.211L53.584 93.4795C53.584 93.4795 63.5147 109.104 74.2815 120.365C85.0483 131.625 96.6831 142.018 96.6831 142.018Z" fill="#00F863" stroke="black" stroke-width="1.59272" stroke-linecap="round" stroke-linejoin="round"/>
<path d="M105.26 107.073L107.084 114.957" stroke="black" stroke-width="1.59272" stroke-miterlimit="10" stroke-linecap="round" stroke-linejoin="round"/>
<path d="M85.55 71.7149L78.1916 84.6319" stroke="black" stroke-width="1.59272" stroke-miterlimit="10" stroke-linecap="round" stroke-linejoin="round"/>
<path d="M96.6831 142.018L95.3293 127.309L108.302 100.448L110.651 117.466L96.6831 142.018Z" fill="#00F863" stroke="black" stroke-width="1.59272" stroke-linecap="round" stroke-linejoin="round"/>
<path d="M106.693 46.4862C106.693 46.4862 103.819 49.0425 105.427 53.2394C106.9 57.0778 109.258 58.5352 112.778 58.5989C117.317 58.6865 119.379 56.8071 120.749 53.9641C122.031 51.3042 120.032 46.765 120.032 46.765C120.032 46.765 119.794 48.0073 118.933 48.1028C117.333 48.294 118.145 45.5226 118.153 44.0733C118.161 42.2416 116.497 40.6728 115.087 39.3508C113.677 38.0289 112.459 37.3759 112.459 37.3759C112.459 37.3759 113.303 41.1825 112.642 42.2735C111.91 43.484 110.954 42.0505 110.954 42.0505C110.954 42.0505 109.433 43.9697 109.329 45.5465C109.226 47.1233 109.425 48.7718 108.135 48.955C106.861 49.1461 106.693 46.4862 106.693 46.4862Z" fill="#00F863"/>
<path d="M112.483 58.3042C112.093 58.2803 111.726 58.1211 111.44 57.8583C110.954 57.4043 110.197 56.5602 109.696 55.3099C108.915 53.3429 109.839 51.2883 109.839 51.2883C109.839 51.2883 110.325 52.0528 110.723 51.2405C111.113 50.4282 111.169 47.6011 112.14 46.2314C113.112 44.8696 114.251 44.3201 114.251 44.3201C114.251 44.3201 113.239 47.8878 114.514 49.9902C115.796 52.0926 116.409 51.782 116.552 53.8685C116.704 56.0824 114.299 57.8503 113.725 58.1529C113.415 58.3202 112.889 58.3361 112.483 58.3042Z" fill="#00F863"/>
<path d="M113.048 50.5158C113.048 50.5158 113.685 51.5431 114.434 53.0562C115.183 54.5693 114.713 56.9504 113.152 57.3327C111.591 57.7229 110.978 55.2542 111.113 54.5454C111.249 53.8287 111.44 53.2394 111.44 53.2394L111.902 54.1472C111.902 54.1472 112.021 54.3304 112.164 52.8969C112.316 51.4555 113.048 50.5158 113.048 50.5158Z" fill="white"/>
<path d="M125.225 47.8799C125.225 47.8799 122.35 50.4362 123.958 54.633C125.432 58.4715 127.789 59.9288 131.309 59.9925C135.848 60.0801 137.911 58.2007 139.28 55.3577C140.563 52.6978 138.564 48.1586 138.564 48.1586C138.564 48.1586 138.325 49.4009 137.465 49.4965C135.864 49.6876 136.676 46.9163 136.684 45.4669C136.692 43.6353 135.028 42.0664 133.618 40.7445C132.209 39.4225 130.99 38.7695 130.99 38.7695C130.99 38.7695 131.834 42.5761 131.174 43.6671C130.441 44.8776 129.485 43.4441 129.485 43.4441C129.485 43.4441 127.964 45.3634 127.861 46.9401C127.757 48.5169 127.956 50.1654 126.666 50.3486C125.376 50.5318 125.225 47.8799 125.225 47.8799Z" fill="#00F863"/>
<path d="M131.014 59.7058C130.624 59.6819 130.258 59.5226 129.971 59.2598C129.485 58.8059 128.729 57.9618 128.227 56.7115C127.447 54.7445 128.37 52.6899 128.37 52.6899C128.37 52.6899 128.856 53.4544 129.254 52.6421C129.644 51.8298 129.7 49.0027 130.672 47.633C131.643 46.2712 132.782 45.7217 132.782 45.7217C132.782 45.7217 131.771 49.2894 133.045 51.3918C134.327 53.4942 134.94 53.1836 135.084 55.2701C135.235 57.484 132.83 59.2519 132.257 59.5545C131.946 59.7217 131.42 59.7297 131.014 59.7058Z" fill="#00F863"/>
<path d="M131.572 51.9174C131.572 51.9174 132.209 52.9447 132.957 54.4578C133.706 55.9709 133.236 58.352 131.675 58.7343C130.114 59.1165 129.501 56.6558 129.637 55.947C129.772 55.2303 129.963 54.641 129.963 54.641L130.425 55.5488C130.425 55.5488 130.544 55.732 130.688 54.2985C130.839 52.8571 131.572 51.9174 131.572 51.9174Z" fill="white"/>
<path d="M40.6272 223.032L47.2529 183.548" stroke="black" stroke-width="1.59272" stroke-miterlimit="10" stroke-linecap="round" stroke-linejoin="round"/>
<path d="M86.8003 70.1461L84.2041 75.8799L93.5773 86.0574L97.5272 81.558L86.8003 70.1461Z" fill="white"/>
<path d="M212.052 236.514L211.367 231.29L219.769 186.678C219.769 186.678 220.764 185.746 222.445 186.057C224.125 186.367 224.189 186.925 224.189 186.925L215.978 232.102L212.052 236.514Z" fill="#00F863" stroke="black" stroke-width="1.59272" stroke-linecap="round" stroke-linejoin="round"/>
<path d="M210.013 206.666L210.762 209.278C210.762 209.278 215.707 212.52 215.707 214.789C215.707 217.059 214.736 218.843 212.952 219.169C211.168 219.496 208.174 218.277 205.737 216.573C203.308 214.869 201.357 213.085 201.038 212.193" fill="white"/>
<path d="M210.013 206.666L210.762 209.278C210.762 209.278 215.707 212.52 215.707 214.789C215.707 217.059 214.736 218.843 212.952 219.169C211.168 219.496 208.174 218.277 205.737 216.573C203.308 214.869 201.357 213.085 201.038 212.193" stroke="black" stroke-width="1.59272" stroke-miterlimit="10" stroke-linecap="round" stroke-linejoin="round"/>
<path d="M220.86 206.34L221.943 209.191C221.943 209.191 216.273 215.108 215.46 218.19C214.648 221.272 215.46 222.968 216.432 223.621C217.404 224.266 218.781 224.752 219.347 224.186C219.912 223.621 229.803 213.491 230.615 212.273C231.427 211.054 232.399 206.762 232.399 206.762" fill="white"/>
<path d="M220.86 206.34L221.943 209.191C221.943 209.191 216.273 215.108 215.46 218.19C214.648 221.272 215.46 222.968 216.432 223.621C217.404 224.266 218.781 224.752 219.347 224.186C219.912 223.621 229.803 213.491 230.615 212.273C231.427 211.054 232.399 206.762 232.399 206.762" stroke="black" stroke-width="1.59272" stroke-miterlimit="10" stroke-linecap="round" stroke-linejoin="round"/>
<path d="M170.116 186.136C170.116 186.136 158.943 186.797 152.349 195.039" stroke="black" stroke-width="1.59272" stroke-miterlimit="10" stroke-linecap="round" stroke-linejoin="round"/>
<path d="M348.939 113.134C348.939 113.134 402.016 251.509 402.016 256.144C402.016 260.779 343.006 270.829 335.791 268.512C328.576 266.194 293.018 251.255 293.018 246.094C293.018 243.777 336.085 245.577 366.196 245.577C375.211 245.577 381.916 245.577 382.171 244.804C382.426 244.032 350.73 156.679 350.73 156.679L348.939 113.134Z" fill="white" stroke="black" stroke-width="1.59272" stroke-miterlimit="10" stroke-linecap="round" stroke-linejoin="round"/>
<path d="M304.048 55.8753L305.688 207.67L346.924 250.355L351.742 249.391L349.815 2.46337L345.474 1.2529L304.048 55.8753Z" fill="white" stroke="black" stroke-width="1.59272" stroke-miterlimit="10" stroke-linecap="round" stroke-linejoin="round"/>
<path d="M346.924 250.355L345.474 1.2529" stroke="black" stroke-width="1.59272" stroke-miterlimit="10" stroke-linecap="round" stroke-linejoin="round"/>
<path d="M343.977 210.361L308.706 185.961L306.707 59.0687L342.201 13.5885L343.977 210.361Z" fill="#00F863" stroke="black" stroke-width="1.59272" stroke-miterlimit="10" stroke-linecap="round" stroke-linejoin="round"/>
</svg>
