<svg width="501" height="577" viewBox="0 0 501 577" fill="none" xmlns="http://www.w3.org/2000/svg">
<path d="M450.958 538.593C445.112 538.593 440.372 533.854 440.372 528.007C440.372 522.161 445.112 517.421 450.958 517.421C456.804 517.421 461.544 522.161 461.544 528.007C461.544 533.854 456.804 538.593 450.958 538.593Z" fill="white" stroke="black" stroke-width="2.1917" stroke-miterlimit="10" stroke-linecap="round" stroke-linejoin="round"/>
<path d="M446.103 538.593C440.257 538.593 435.517 533.854 435.517 528.007C435.517 522.161 440.257 517.421 446.103 517.421C451.95 517.421 456.689 522.161 456.689 528.007C456.689 533.854 451.95 538.593 446.103 538.593Z" fill="white" stroke="black" stroke-width="2.1917" stroke-miterlimit="10" stroke-linecap="round" stroke-linejoin="round"/>
<path d="M286.504 553.486C280.658 553.486 275.918 548.746 275.918 542.9C275.918 537.053 280.658 532.314 286.504 532.314C292.35 532.314 297.09 537.053 297.09 542.9C297.09 548.746 292.35 553.486 286.504 553.486Z" fill="white" stroke="black" stroke-width="2.1917" stroke-miterlimit="10" stroke-linecap="round" stroke-linejoin="round"/>
<path d="M281.639 553.486C275.792 553.486 271.053 548.746 271.053 542.9C271.053 537.053 275.792 532.314 281.639 532.314C287.485 532.314 292.224 537.053 292.224 542.9C292.224 548.746 287.485 553.486 281.639 553.486Z" fill="white" stroke="black" stroke-width="2.1917" stroke-miterlimit="10" stroke-linecap="round" stroke-linejoin="round"/>
<path d="M118.828 529.793L116.571 574.997H256.127L247.086 542.79L243.021 529.793H118.828Z" fill="white" stroke="black" stroke-width="2.1917" stroke-miterlimit="10" stroke-linecap="round" stroke-linejoin="round"/>
<path d="M157.249 330.908H203.581V552.39H157.249V330.908Z" fill="white" stroke="black" stroke-width="2.1917" stroke-miterlimit="10" stroke-linecap="round" stroke-linejoin="round"/>
<path d="M245.355 535.163H275.578L273.003 504.819L245.355 505.904V535.163Z" fill="white" stroke="black" stroke-width="2.1917" stroke-miterlimit="10" stroke-linecap="round" stroke-linejoin="round"/>
<path d="M376.232 417.984H389.689V476.426H376.232V417.984Z" fill="white" stroke="black" stroke-width="2.1917" stroke-miterlimit="10" stroke-linecap="round" stroke-linejoin="round"/>
<path d="M373.493 473.971H393.141V480.853L488.721 531.459V542.023H481.839V536.127L388.966 502.474L376.682 552.346H371.772L374.227 500.753L287.501 527.777V532.686H278.406V523.602L373.493 479.867V473.971Z" fill="black" stroke="black" stroke-width="2.1917" stroke-miterlimit="10" stroke-linecap="round" stroke-linejoin="round"/>
<path d="M377.525 570.986C371.679 570.986 366.939 566.247 366.939 560.4C366.939 554.554 371.679 549.815 377.525 549.815C383.372 549.815 388.111 554.554 388.111 560.4C388.111 566.247 383.372 570.986 377.525 570.986Z" fill="white" stroke="black" stroke-width="2.1917" stroke-miterlimit="10" stroke-linecap="round" stroke-linejoin="round"/>
<path d="M372.66 570.986C366.813 570.986 362.074 566.247 362.074 560.4C362.074 554.554 366.813 549.815 372.66 549.815C378.506 549.815 383.246 554.554 383.246 560.4C383.246 566.247 378.506 570.986 372.66 570.986Z" fill="white" stroke="black" stroke-width="2.1917" stroke-miterlimit="10" stroke-linecap="round" stroke-linejoin="round"/>
<path d="M337.768 538.593C331.921 538.593 327.182 533.854 327.182 528.007C327.182 522.161 331.921 517.421 337.768 517.421C343.614 517.421 348.354 522.161 348.354 528.007C348.354 533.854 343.614 538.593 337.768 538.593Z" fill="white" stroke="black" stroke-width="2.1917" stroke-miterlimit="10" stroke-linecap="round" stroke-linejoin="round"/>
<path d="M332.902 538.593C327.056 538.593 322.316 533.854 322.316 528.007C322.316 522.161 327.056 517.421 332.902 517.421C338.749 517.421 343.488 522.161 343.488 528.007C343.488 533.854 338.749 538.593 332.902 538.593Z" fill="white" stroke="black" stroke-width="2.1917" stroke-miterlimit="10" stroke-linecap="round" stroke-linejoin="round"/>
<path d="M299.731 425.063H416.614C428.942 425.063 438.926 415.069 438.926 402.752C438.926 390.423 428.931 380.44 416.614 380.44H299.731C287.403 380.44 277.419 390.434 277.419 402.752C277.419 415.069 287.414 425.063 299.731 425.063Z" fill="white" stroke="black" stroke-width="2.1917" stroke-linecap="round" stroke-linejoin="round"/>
<path d="M488.414 559.874C482.568 559.874 477.828 555.135 477.828 549.288C477.828 543.442 482.568 538.703 488.414 538.703C494.261 538.703 499 543.442 499 549.288C499 555.135 494.261 559.874 488.414 559.874Z" fill="white" stroke="black" stroke-width="2.1917" stroke-miterlimit="10" stroke-linecap="round" stroke-linejoin="round"/>
<path d="M483.56 559.874C477.713 559.874 472.974 555.135 472.974 549.288C472.974 543.442 477.713 538.703 483.56 538.703C489.406 538.703 494.146 543.442 494.146 549.288C494.146 555.135 489.406 559.874 483.56 559.874Z" fill="white" stroke="black" stroke-width="2.1917" stroke-miterlimit="10" stroke-linecap="round" stroke-linejoin="round"/>
<path d="M326.174 335.938C326.174 335.938 249.924 348.88 232.314 357.131C214.693 365.394 219.657 382.183 219.657 410.532C219.657 438.882 222.682 506.594 222.682 506.594C222.682 506.594 236.446 513.202 248.281 513.75C260.116 514.298 279.94 510.726 279.94 510.726C279.94 510.726 275.808 450.991 274.713 436.131C273.617 421.271 270.855 401.995 271.688 400.352C272.51 398.697 392.648 403.793 405.338 394.412C422.006 382.106 420.877 363.739 412.888 338.414C404.899 313.089 326.174 335.938 326.174 335.938Z" fill="black" stroke="black" stroke-width="2.1917" stroke-miterlimit="10" stroke-linecap="round" stroke-linejoin="round"/>
<path d="M187.045 80.6489L189.894 146.499L95.2346 158.849L80.9885 84.7693C80.9885 84.7693 97.4482 87.9363 132.592 85.4049C164.799 83.0708 187.045 80.6489 187.045 80.6489Z" fill="white" stroke="black" stroke-width="2.1917" stroke-miterlimit="10" stroke-linecap="round" stroke-linejoin="round"/>
<path d="M218.397 103.76C218.715 104.078 177.873 136.055 177.873 136.055C177.873 136.055 179.768 169.303 185.467 191.779C191.165 214.255 189.587 224.074 189.587 224.074L232.008 169.303C232.008 169.303 225.356 157.589 223.778 143.66C222.2 129.732 218.397 103.76 218.397 103.76Z" fill="#04A946" stroke="black" stroke-width="2.1917" stroke-linecap="round" stroke-linejoin="round"/>
<path d="M90.7198 7.40253C90.7198 7.40253 85.6461 20.3335 74.4903 28.1908C68.1892 32.629 48.3434 39.0177 30.1194 43.3573C16.0707 46.6996 2 48.6503 2 48.6503C2 48.6503 18.2295 30.3934 22.7882 22.0321C27.3469 13.6708 31.6646 2 31.6646 2C31.6646 2 90.1829 8.75043 90.7198 7.40253Z" fill="#04A946" stroke="black" stroke-width="2.1917" stroke-linecap="round" stroke-linejoin="round"/>
<path d="M81.1859 22.3828C81.1859 22.3828 69.9535 28.6839 61.0442 27.0401C52.135 25.3963 49.8118 23.4786 49.8118 23.4786C49.8118 23.4786 41.593 39.9163 32.1358 42.7984C22.6787 45.6805 53.6144 39.6424 65.1318 34.4371C73.8657 30.4811 81.1859 22.3828 81.1859 22.3828Z" fill="#04A946" stroke="black" stroke-width="2.1917" stroke-linecap="round" stroke-linejoin="round"/>
<path d="M102.325 100.396L34.3384 104.593C34.3384 104.593 41.2314 150.115 56.5075 167.188C71.7836 184.261 95.7388 188.754 95.7388 188.754L137.973 180.963L102.325 100.396Z" fill="white" stroke="black" stroke-width="2.1917" stroke-miterlimit="10" stroke-linecap="round" stroke-linejoin="round"/>
<path d="M95.7387 188.754L86.7527 171.385L59.7949 170.191" fill="white"/>
<path d="M95.7387 188.754L86.7527 171.385L59.7949 170.191" stroke="black" stroke-width="2.1917" stroke-miterlimit="10" stroke-linecap="round" stroke-linejoin="round"/>
<path d="M25.4182 347.784H317.681V356.551H25.4182V347.784Z" fill="white" stroke="black" stroke-width="2.1917" stroke-miterlimit="10" stroke-linecap="round" stroke-linejoin="round"/>
<path d="M25.4185 347.784L54.2831 292.981C54.2831 292.981 286.636 291.523 286.636 292.981C286.636 294.438 317.692 347.784 317.692 347.784H25.4185Z" fill="white" stroke="black" stroke-width="2.1917" stroke-miterlimit="10" stroke-linecap="round" stroke-linejoin="round"/>
<path d="M387.618 163.342L387.443 168.58" stroke="black" stroke-width="2.1917" stroke-linecap="round" stroke-linejoin="round"/>
<path d="M118.543 262.691C118.543 262.691 114.807 278.176 103.059 289.112C91.3115 300.06 81.7009 306.197 81.7009 306.197C81.7009 306.197 132.154 304.86 146.827 305.66C161.512 306.46 171.385 294.449 181.533 284.838C191.68 275.228 202.354 265.617 202.617 265.891C202.88 266.154 164.449 266.691 147.627 264.554C130.828 262.428 118.543 262.691 118.543 262.691Z" fill="white" stroke="black" stroke-width="2.1917" stroke-miterlimit="10" stroke-linecap="round" stroke-linejoin="round"/>
<path d="M117.448 325.966C117.448 325.966 103.706 297.452 104.462 297.967C105.229 298.471 86.6435 301.78 73.1536 296.696C59.6637 291.6 44.1355 278.877 44.1355 278.877C44.1355 278.877 33.9551 283.71 24.5308 295.172C15.1065 306.635 10.7888 317.823 10.7888 317.823C10.7888 317.823 30.6456 329.538 65.0114 330.809C99.3663 332.07 117.448 325.966 117.448 325.966Z" fill="#04A946" stroke="black" stroke-width="2.1917" stroke-miterlimit="10" stroke-linecap="round" stroke-linejoin="round"/>
<path d="M352.43 121.71C352.43 121.71 344.661 131.661 344.179 135.058C343.696 138.455 344.42 143.069 344.42 143.069L335.686 152.296L339.565 156.175C339.565 156.175 338.108 161.029 339.083 165.884C340.058 170.739 341.768 171.144 341.768 171.144" stroke="black" stroke-width="2.1917" stroke-linecap="round" stroke-linejoin="round"/>
<path d="M350.031 136.702C347.466 135.551 344.179 135.058 344.179 135.058" stroke="black" stroke-width="2.1917" stroke-linecap="round" stroke-linejoin="round"/>
<path d="M339.258 162.892C339.258 162.892 342.206 163.791 345.34 163.462" stroke="black" stroke-width="2.1917" stroke-linecap="round" stroke-linejoin="round"/>
<path d="M348.299 143.167C348.463 143.332 347.894 145.359 346.359 145.436C344.825 145.512 344.42 143.069 344.42 143.069C347.729 140.986 350.765 145.425 350.765 145.425" stroke="black" stroke-width="2.1917" stroke-linecap="round" stroke-linejoin="round"/>
<path d="M372.977 148.734C372.977 148.734 368.298 145.293 370.38 141.523C372.616 137.491 371.553 133.425 370.468 132.077C367.553 128.461 352.836 132.318 349.219 123.146C345.768 114.401 353.504 102.347 353.504 102.347C353.504 102.347 358.523 110.182 372.561 109.514C380.594 109.141 397.831 113.974 402.752 126.981C406.762 137.578 405.689 145.753 401.283 151.134C396.878 156.515 392.473 161.742 391.651 163.21C390.84 164.679 387.245 165.501 384.955 164.186C382.665 162.87 378.796 159.901 379.443 158.268C380.1 156.635 383.081 153.041 382.38 150.553C381.24 146.509 372.977 148.734 372.977 148.734Z" fill="black"/>
<path d="M269.858 116.768C269.858 116.768 263.108 108.779 261.869 102.851C260.631 96.9222 258.998 89.9527 257.365 85.6569C255.733 81.3612 254.911 72.967 253.475 71.9369C252.04 70.9178 249.585 73.5697 249.18 75.619C248.774 77.6682 249.793 82.5776 249.793 82.5776C249.793 82.5776 227.58 66.9727 224.304 66.4686C221.027 65.9645 219.405 67.9809 219.405 67.9809C219.405 67.9809 215.252 66.3481 212.874 67.7289C210.496 69.1096 212.249 72.6273 212.249 72.6273C212.249 72.6273 210.113 73.756 209.74 75.8929C209.367 78.0298 210.748 79.4106 210.748 79.4106C210.748 79.4106 209.992 82.4242 210.376 84.309C210.759 86.1939 225.334 102.917 232.369 107.563C239.405 112.209 244.818 114.478 247.448 117.491C250.089 120.505 257.628 130.433 257.628 130.433" stroke="black" stroke-width="2.1917" stroke-linecap="round" stroke-linejoin="round"/>
<path d="M219.405 67.981L236.873 82.3147" stroke="black" stroke-width="2.1917" stroke-linecap="round" stroke-linejoin="round"/>
<path d="M212.37 72.5068L229.838 86.8405" stroke="black" stroke-width="2.1917" stroke-linecap="round" stroke-linejoin="round"/>
<path d="M210.474 79.1697L227.953 93.5034" stroke="black" stroke-width="2.1917" stroke-linecap="round" stroke-linejoin="round"/>
<path d="M279.754 125.173C279.754 125.173 315.106 154.827 320.651 159.671C324.158 162.728 349.965 171.495 350.809 171.495C351.652 171.495 362.457 165.38 369.208 164.536C375.969 163.692 395.552 172.525 398.719 174.848C401.886 177.171 409.349 182.377 412.275 190.289C414.357 195.921 420.932 226.386 420.296 237.794C419.661 249.19 422.652 358.578 422.652 358.578C422.652 358.578 398.642 360.222 388.045 360.529C377.449 360.835 339.74 362.403 332.574 358.973C325.407 355.543 316.059 332.486 316.059 332.486C316.059 332.486 311.698 275.765 312.947 266.099C314.196 256.434 319.182 235.558 319.489 230.879C319.796 226.2 326.031 204.699 326.031 204.699C326.031 204.699 307.566 192.71 300.137 187.012C292.707 181.314 281.365 172.415 275.25 166.969C267.897 160.427 256.861 150.005 256.861 150.005L279.589 125.173H279.754Z" fill="#04A946" stroke="black" stroke-width="2.1917" stroke-miterlimit="10" stroke-linecap="round" stroke-linejoin="round"/>
<path d="M279.578 125.173L271.809 117.228L254.473 137.085L261.037 144.515" fill="black"/>
<path d="M279.578 125.173L271.809 117.228L254.473 137.085L261.037 144.515" stroke="black" stroke-width="2.1917" stroke-linecap="round" stroke-linejoin="round"/>
<path d="M326.02 204.688C326.02 204.688 346.732 215.559 359.159 220.392C371.575 225.224 377.788 225.454 377.788 225.454" stroke="black" stroke-width="2.1917" stroke-linecap="round" stroke-linejoin="round"/>
<path d="M266.877 289.441C266.877 289.441 234.353 289.649 228.161 289.441C221.969 289.233 216.304 294.054 212.951 296.685C209.597 299.304 205.082 303.402 205.082 303.402C205.082 303.402 207.285 304.344 209.696 304.344C212.107 304.344 220.402 300.772 221.969 300.038C223.548 299.304 220.917 302.032 221.86 303.501C222.802 304.969 227.208 305.177 231.098 304.86C234.977 304.542 245.267 304.235 249.771 304.334C254.286 304.443 258.483 302.756 261.42 302.339C264.357 301.923 266.351 302.756 266.56 302.449C266.768 302.142 266.877 289.441 266.877 289.441Z" fill="white" stroke="black" stroke-width="2.1917" stroke-miterlimit="10" stroke-linecap="round" stroke-linejoin="round"/>
<path d="M221.97 300.038C221.97 300.038 224.172 298.569 230.254 298.153C236.336 297.737 238.648 297.211 238.648 297.211" fill="white"/>
<path d="M221.97 300.038C221.97 300.038 224.172 298.569 230.254 298.153C236.336 297.737 238.648 297.211 238.648 297.211" stroke="black" stroke-width="2.1917" stroke-miterlimit="10" stroke-linecap="round" stroke-linejoin="round"/>
<path d="M313.254 278.965C313.254 279.918 264.664 286.131 264.664 286.131L263.71 308.257L314.788 311.632L313.254 278.965Z" fill="white" stroke="black" stroke-width="2.1917" stroke-miterlimit="10" stroke-linecap="round" stroke-linejoin="round"/>
<path d="M368.101 411.453C372.013 411.453 375.18 408.286 375.18 404.374V352.956C375.18 349.044 372.013 345.877 368.101 345.877C364.189 345.877 361.022 349.044 361.022 352.956V404.374C361.033 408.286 364.2 411.453 368.101 411.453Z" fill="white" stroke="#231F20" stroke-width="2.1917" stroke-miterlimit="10" stroke-linecap="round" stroke-linejoin="round"/>
<path d="M334.787 350.644H398.094C401.13 350.644 403.595 348.178 403.595 345.143C403.595 342.107 401.13 339.642 398.094 339.642H334.787C331.752 339.642 329.286 342.107 329.286 345.143C329.297 348.189 331.752 350.644 334.787 350.644Z" fill="white" stroke="black" stroke-width="2.1917" stroke-linecap="round" stroke-linejoin="round"/>
<path d="M275.348 526.341C275.348 526.341 280.466 533.158 280.707 541.442C280.948 549.727 280.466 555.809 280.466 555.809L257.574 557.025L255.864 554.099C255.864 554.099 247.097 555.557 238.813 556.532C230.528 557.507 210.562 556.532 201.061 553.606C191.56 550.68 185.467 548.73 184.744 546.056C184.009 543.371 185.96 537.53 185.96 537.53C185.96 537.53 202.518 537.771 211.044 536.796C219.57 535.821 235.887 524.369 237.837 522.67C239.788 520.972 243.678 517.312 245.87 519.503C248.062 521.695 253.662 525.103 253.662 527.295C253.662 529.486 255.853 529.728 259.996 530.221C264.149 530.725 275.348 526.341 275.348 526.341Z" fill="#04A946" stroke="#231F20" stroke-width="2.1917" stroke-miterlimit="10" stroke-linecap="round" stroke-linejoin="round"/>
<path d="M242.824 531.634C242.824 531.634 238.122 526.232 236.128 525.333" stroke="black" stroke-width="2.1917" stroke-linecap="round" stroke-linejoin="round"/>
<path d="M236.621 535.536C236.621 535.536 231.92 530.133 229.925 529.234" stroke="black" stroke-width="2.1917" stroke-linecap="round" stroke-linejoin="round"/>
<path d="M230.517 538.538C230.517 538.538 225.816 533.136 223.822 532.237" stroke="black" stroke-width="2.1917" stroke-linecap="round" stroke-linejoin="round"/>
<path d="M426.477 390.884C433.183 390.884 438.63 385.448 438.63 378.731V211.647C438.63 204.94 433.194 199.494 426.477 199.494C419.77 199.494 414.324 204.929 414.324 211.647V378.731C414.335 385.437 419.77 390.884 426.477 390.884Z" fill="#FDFFFE" stroke="black" stroke-width="2.1917" stroke-linecap="round" stroke-linejoin="round"/>
</svg>
